<?xml version="1.0" encoding="UTF-8" standalone="no"?>
<!-- Created with Inkscape (http://www.inkscape.org/) -->

<svg
   width="66.524582mm"
   height="51.088688mm"
   viewBox="0 0 66.524582 51.088688"
   version="1.1"
   id="svg1"
   xml:space="preserve"
   sodipodi:docname="shitcode-box-export.svg"
   inkscape:version="1.4 (e7c3feb100, 2024-10-09)"
   xmlns:inkscape="http://www.inkscape.org/namespaces/inkscape"
   xmlns:sodipodi="http://sodipodi.sourceforge.net/DTD/sodipodi-0.dtd"
   xmlns="http://www.w3.org/2000/svg"
   xmlns:svg="http://www.w3.org/2000/svg"><sodipodi:namedview
     id="namedview1"
     pagecolor="#ffffff"
     bordercolor="#000000"
     borderopacity="0.25"
     inkscape:showpageshadow="2"
     inkscape:pageopacity="0.0"
     inkscape:pagecheckerboard="0"
     inkscape:deskcolor="#d1d1d1"
     inkscape:document-units="mm"
     inkscape:zoom="3.9048925"
     inkscape:cx="125.7397"
     inkscape:cy="96.545552"
     inkscape:window-width="1680"
     inkscape:window-height="970"
     inkscape:window-x="1360"
     inkscape:window-y="0"
     inkscape:window-maximized="1"
     inkscape:current-layer="svg1" /><defs
     id="defs1" /><g
     id="layer1"
     transform="translate(-21.235645,-15.516385)"><path
       style="opacity:1;fill:#ffffff;stroke-width:0.264583"
       id="path27"
       d="m 77.473333,28.659981 c -0.187698,0.16382 -0.387353,0.312936 -0.587894,0.460478 -0.469992,0.326536 -0.944581,0.646332 -1.41529,0.971825 -0.588524,0.426371 -1.176915,0.852308 -1.783213,1.253197 -0.758867,0.503661 -1.578596,0.901933 -2.404319,1.281544 -0.90579,0.408008 -1.833173,0.764934 -2.767642,1.101029 -0.956924,0.345987 -1.920295,0.67429 -2.888144,0.988388 -0.967224,0.316002 -1.947487,0.589319 -2.929435,0.855149 -0.998095,0.254622 -1.990587,0.527682 -2.976144,0.827037 -0.805058,0.24506 -1.600859,0.519176 -2.393971,0.80014 -0.590788,0.211484 -1.174345,0.442338 -1.76248,0.660913 -0.598098,0.215823 -1.167881,0.499285 -1.745943,0.76205 -0.49453,0.222401 -0.994807,0.431642 -1.488228,0.656575 -0.365654,0.171854 -0.737621,0.329575 -1.104138,0.499565 -0.267883,0.114043 -0.52351,0.249737 -0.763455,0.414192 -1.124032,0.834874 0.05665,2.424496 1.180687,1.589621 v 0 c 0.104698,-0.09295 0.281771,-0.160578 0.417631,-0.227734 0.362448,-0.172977 0.729398,-0.336037 1.092401,-0.507826 0.485701,-0.231653 0.980935,-0.442185 1.470166,-0.666131 0.53567,-0.246956 1.066826,-0.505721 1.622226,-0.706683 0.579742,-0.220004 1.156412,-0.448053 1.737217,-0.665295 0.758579,-0.281776 1.520598,-0.555342 2.292803,-0.797756 0.962154,-0.297291 1.933075,-0.563837 2.907583,-0.817615 1.016071,-0.267758 2.029108,-0.548868 3.026283,-0.881184 0.986136,-0.320752 1.971873,-0.644128 2.943656,-1.00656 0.984956,-0.353872 1.964894,-0.723104 2.917047,-1.159116 0.909828,-0.416176 1.814145,-0.849251 2.653826,-1.397299 0.629063,-0.39961 1.234004,-0.834522 1.843008,-1.263861 0.474557,-0.325946 0.952657,-0.646552 1.433931,-0.962515 0.226335,-0.150643 0.447381,-0.308753 0.668827,-0.466132 1.12854,-0.846405 -0.06846,-2.442401 -1.196996,-1.595996 z" /><path
       style="opacity:1;fill:#ffffff;stroke-width:0.264583"
       id="path28"
       d="m 53.538884,24.359651 c 0.357965,0.101951 0.716095,0.203651 1.072653,0.311438 0.648157,0.208091 1.293357,0.424916 1.943364,0.627219 0.657905,0.201197 1.322758,0.378303 1.982899,0.57181 0.636667,0.194122 1.275389,0.381466 1.916213,0.561387 0.606898,0.168708 1.220292,0.311144 1.839529,0.426074 0.700608,0.127227 1.404172,0.237278 2.109485,0.334795 0.148604,0.01823 0.296918,0.03899 0.44581,0.0547 0.370613,0.03909 0.74241,0.06623 1.113176,0.103873 0.57816,0.0587 1.15556,0.125759 1.732838,0.192416 1.110031,0.129405 2.221111,0.249116 3.329483,0.392247 0.912257,0.124434 1.821365,0.272897 2.724192,0.453509 0.721,0.145373 1.423863,0.364628 2.122109,0.592876 0.434912,0.132718 0.842193,0.335185 1.246934,0.538946 0.148823,0.07879 0.29778,0.1573 0.447122,0.235098 1.222914,0.609004 2.084176,-1.120458 0.861263,-1.729462 v 0 C 78.265527,27.950509 78.105594,27.87342 77.945217,27.797241 77.447083,27.56867 76.944785,27.343486 76.413004,27.203511 75.64199,26.984174 74.870468,26.763329 74.085931,26.596834 73.1439,26.429695 72.195993,26.300687 71.24606,26.187242 70.128682,26.048058 69.009894,25.920292 67.890172,25.801405 66.81889,25.684858 65.745378,25.575991 64.684531,25.382654 64.008796,25.265315 63.331475,25.157085 62.657476,25.030183 62.084547,24.907623 61.510817,24.787078 60.946421,24.628581 60.31335,24.460753 59.682676,24.283883 59.054348,24.099073 58.402166,23.909807 57.753022,23.710275 57.102152,23.516559 56.469054,23.324792 55.835391,23.13326 55.212059,22.911368 c -0.245679,-0.0943 -0.488225,-0.188781 -0.726424,-0.300558 -0.03269,-0.01534 -0.130305,-0.05905 -0.17021,-0.08255 -0.0024,-0.0014 0.0055,7.3e-5 0.0083,1.09e-4 -1.294913,-0.554963 -2.079749,1.276321 -0.784836,1.831283 z" /><path
       style="opacity:1;fill:#ffffff;stroke-width:0.264583"
       id="path29"
       d="m 53.742843,22.992296 c -0.292481,0.02975 -0.57369,0.120245 -0.858763,0.187864 -0.77021,0.180049 -1.551173,0.307204 -2.331069,0.436642 -0.670147,0.115425 -1.344364,0.207833 -2.013162,0.331222 -0.432355,0.07977 -0.75982,0.152703 -1.193432,0.244921 -0.235146,0.05191 -0.471072,0.100418 -0.70544,0.155744 -0.277701,0.06556 -0.553754,0.137914 -0.83063,0.206871 -0.299741,0.07185 -0.599102,0.145311 -0.899226,0.215543 -0.889659,0.208191 -1.782689,0.399162 -2.677018,0.585989 -0.967853,0.196987 -1.935686,0.395966 -2.892962,0.640134 -0.534386,0.136303 -0.775567,0.206398 -1.305787,0.35381 -1.233612,0.377376 -2.466181,0.75836 -3.692673,1.158325 -0.663845,0.227081 -1.327029,0.457719 -1.978573,0.718492 -0.356515,0.142693 -0.514839,0.214334 -0.864568,0.366125 -0.667462,0.282178 -1.321052,0.595008 -1.963436,0.930016 -0.440426,0.224459 -0.845937,0.505653 -1.240631,0.801219 -0.272011,0.199713 -0.535197,0.410792 -0.796296,0.624441 -0.155593,0.12311 -0.309559,0.248594 -0.470278,0.365032 -0.06829,0.04819 -0.134985,0.09857 -0.201631,0.148984 -1.067506,0.887997 0.188309,2.397678 1.255816,1.509684 v 0 c 0.04081,-0.04157 0.08477,-0.07956 0.130791,-0.115353 0.180629,-0.14405 0.354177,-0.296387 0.5271,-0.449559 0.22963,-0.204079 0.464233,-0.402262 0.704708,-0.593506 0.312382,-0.249936 0.632973,-0.489397 0.97877,-0.691994 0.578832,-0.344064 1.170636,-0.665316 1.781429,-0.949565 0.874712,-0.40367 1.763951,-0.775867 2.670908,-1.101455 1.187122,-0.42495 2.377027,-0.845103 3.592647,-1.182675 1.357493,-0.388943 2.723367,-0.747855 4.091922,-1.095729 1.174594,-0.290103 2.351434,-0.572001 3.544308,-0.778198 0.27297,-0.04718 0.547412,-0.08542 0.821243,-0.127316 0.234563,-0.03589 0.469294,-0.0707 0.703939,-0.106052 1.059929,-0.153954 2.117654,-0.322312 3.178088,-0.472717 0.791972,-0.108174 1.583272,-0.225903 2.380313,-0.290492 0.170897,-0.01768 0.343202,-0.04284 0.515231,-0.0469 0.01479,-3.44e-4 0.04651,-4.23e-4 0.04836,0.0062 0.0011,0.0038 -0.0067,0.0042 -0.01,0.0062 1.408552,0 1.408552,-1.991993 0,-1.991993 z" /><path
       style="opacity:1;fill:#ffffff;stroke-width:0.264583"
       id="path30"
       d="m 26.134756,24.337055 c 0.129205,0.29245 0.223946,0.598349 0.316668,0.903822 0.146834,0.503311 0.271021,1.012784 0.38316,1.524825 0.101007,0.46428 0.183639,0.932281 0.265742,1.400191 0.04174,0.257844 0.0854,0.515567 0.119422,0.774591 0.0062,0.04744 -0.0058,0.100368 0.0168,0.142545 0.121859,0.227594 0.273995,0.437631 0.410991,0.656447 0.509537,-0.195419 1.0604,-0.305909 1.528611,-0.586253 0.102347,-0.06128 0.03214,-0.236458 0.04372,-0.355182 0.01958,-0.200697 0.02561,-0.402532 0.04377,-0.603361 0.02466,-0.27286 0.0408,-0.391713 0.07316,-0.662612 0.01339,-0.107379 0.02638,-0.214808 0.04016,-0.322136 0.03063,-0.238617 0.05031,-0.543753 0.129379,-0.771499 0.0092,-0.02646 0.01598,-0.06601 0.04334,-0.07198 0.02027,-0.0044 7.93e-4,0.04148 0.0013,0.06221 -0.25372,0.298658 -0.201044,0.337213 -0.605947,0.412754 -0.06611,0.01233 -0.133712,-0.01714 -0.200959,-0.01786 -0.006,-6.4e-5 0.004,0.01185 0.0084,0.0158 0.02582,0.02289 0.0549,0.04182 0.08145,0.06386 0.03761,0.03123 0.07399,0.06392 0.110982,0.09588 0.225224,0.193178 0.419952,0.420177 0.645065,0.613363 0.05971,0.05124 0.122769,0.09844 0.184155,0.147666 0.156347,0.06623 0.301273,0.172538 0.469043,0.198697 0.412689,0.06435 0.697888,-0.03027 1.023937,-0.260667 0.299429,-0.211593 0.473707,-0.541399 0.642461,-0.85357 0.282107,-0.609222 0.464847,-1.258069 0.654304,-1.900432 0.152101,-0.457016 0.245698,-0.939489 0.447755,-1.378599 0.01259,-0.0133 0.01971,-0.04309 0.03775,-0.0399 0.01506,0.0027 0.0024,0.03313 -0.0067,0.04538 -0.04306,0.05764 -0.0825,0.125111 -0.14596,0.159003 -0.32921,0.175814 -0.561303,0.205032 -0.881499,0.01696 0.220731,0.338669 0.399706,0.702243 0.579115,1.063855 0.17839,0.324686 0.311102,0.680301 0.528087,0.983261 0.06342,0.08855 0.126153,0.17969 0.206457,0.253278 0.106196,0.09731 0.232399,0.170239 0.348599,0.255358 0.189802,0.04168 0.375272,0.133577 0.569407,0.125033 0.414957,-0.01826 0.687181,-0.207447 0.937705,-0.508205 0.227801,-0.27348 0.311441,-0.644953 0.399499,-0.978398 0.15113,-0.693624 0.307335,-1.385574 0.488726,-2.072031 0.07957,-0.270941 0.139808,-0.548943 0.23264,-0.816015 0.01834,-0.05277 0.03679,-0.106173 0.06445,-0.154718 0.0067,-0.01178 0.04395,-0.03067 0.03524,-0.02029 -0.111215,0.132568 -0.229476,0.259059 -0.344213,0.388589 0.04628,1.072924 -0.489611,-0.109083 -0.633274,0.04635 -0.02479,0.02682 0.05425,0.04894 0.08003,0.0748 0.05262,0.0528 0.105021,0.105884 0.155075,0.161122 0.1476,0.16289 0.241538,0.284136 0.381317,0.456744 0.391038,0.495364 0.738053,1.022956 1.098135,1.540652 0.08778,0.116138 0.272219,0.369993 0.378547,0.471305 0.380815,0.36285 0.787871,0.566307 1.334286,0.46316 0.175173,-0.03307 0.329647,-0.135823 0.494469,-0.203734 0.116639,-0.103319 0.245036,-0.194722 0.349917,-0.309958 0.393835,-0.432716 0.624837,-1.208444 0.814731,-1.758004 0.246923,-0.743836 0.510506,-1.481673 0.791014,-2.21347 0.03804,-0.09406 0.09901,-0.30302 0.19322,-0.393079 0.0076,-0.0073 0.036,0.0037 0.02925,0.0118 -0.073,0.08721 -0.140761,0.187926 -0.241157,0.241361 -0.284205,0.151269 -0.369017,0.09159 -0.626388,0.02947 0.0021,0.0068 0.0019,0.0148 0.0062,0.02046 0.249838,0.327842 -0.115101,-0.194563 0.223092,0.28513 0.169889,0.240972 0.323866,0.492986 0.47979,0.743026 0.350975,0.581459 0.698018,1.165188 1.071962,1.732288 0.251423,0.356709 0.608655,0.823001 1.063622,0.920264 0.193217,0.04131 0.403416,0.07723 0.592426,0.01966 0.239758,-0.07303 0.426532,-0.263316 0.6398,-0.394974 0.08247,-0.136715 0.178157,-0.266284 0.247417,-0.410143 0.09002,-0.18697 0.16125,-0.503548 0.203708,-0.706591 0.0693,-0.331406 0.120142,-0.667616 0.176945,-1.001322 0.08494,-0.498347 0.157239,-0.99885 0.264285,-1.493098 0.01127,-0.02834 0.01299,-0.06274 0.03381,-0.08502 0.01008,-0.0108 0.01005,0.03045 0.0044,0.0441 -0.02447,0.05932 -0.04788,0.122604 -0.09227,0.16894 -0.184838,0.192948 -0.293034,0.223757 -0.55245,0.249772 -0.04543,0.0046 -0.09055,-0.01178 -0.135826,-0.01767 -0.02201,0.06061 -0.0051,0.0034 0.118887,0.110557 0.255053,0.220493 0.488522,0.464374 0.722043,0.707033 0.320839,0.313776 0.60397,0.661773 0.900427,0.997691 0.02294,0.02993 0.04588,0.05987 0.06882,0.0898 0.926735,1.015756 2.363232,-0.294846 1.436494,-1.310603 v 0 c -0.03522,-0.03382 -0.07045,-0.06763 -0.105674,-0.10145 -0.330211,-0.317142 -0.615839,-0.678988 -0.95281,-0.989998 -0.206777,-0.20914 -0.4104,-0.421994 -0.620324,-0.627973 -0.107666,-0.105643 -0.345098,-0.331932 -0.46302,-0.420929 -0.109691,-0.08279 -0.228024,-0.153461 -0.342035,-0.230191 -0.391721,-0.130614 -0.53371,-0.236845 -0.978638,-0.106114 -0.454914,0.133665 -0.716492,0.491003 -0.860383,0.913649 -0.02791,0.08199 -0.04102,0.168296 -0.06153,0.252444 -0.08541,0.511418 -0.142055,1.026788 -0.221866,1.539068 -0.04809,0.287922 -0.09584,0.575727 -0.165373,0.859476 -0.01569,0.06398 -0.03385,0.127346 -0.05228,0.190594 -0.0091,0.03133 -0.05602,0.07291 -0.03036,0.09307 0.02445,0.01921 0.04608,-0.04174 0.06912,-0.06261 0.142677,-0.05892 0.275365,-0.153906 0.428025,-0.176762 0.114911,-0.0172 0.233312,0.02338 0.343138,0.06131 0.164023,0.05665 0.172627,0.207286 0.0046,0.02803 -0.04974,-0.05307 -0.09258,-0.112219 -0.138867,-0.168328 -0.378124,-0.527088 -0.705045,-1.086849 -1.031383,-1.646969 -0.174206,-0.287969 -0.346818,-0.577379 -0.533725,-0.857405 -0.114811,-0.172011 -0.286687,-0.42367 -0.427979,-0.573575 -0.09091,-0.09645 -0.195623,-0.178879 -0.293434,-0.268318 -0.17721,-0.0806 -0.339405,-0.21098 -0.531627,-0.2418 -0.508699,-0.08156 -0.789041,0.07157 -1.144342,0.40508 -0.09101,0.08543 -0.147097,0.20245 -0.207727,0.311556 -0.112747,0.202903 -0.176926,0.412416 -0.253293,0.629429 -0.252098,0.740647 -0.496999,1.483949 -0.776118,2.215056 -0.109908,0.286552 -0.21784,0.572725 -0.351309,0.84938 -0.02273,0.0471 -0.04877,0.09253 -0.07203,0.139363 -0.0085,0.01709 -0.03845,0.04087 -0.0232,0.05232 0.0181,0.01359 0.04297,-0.01422 0.06446,-0.02133 0.185883,-0.03093 0.223324,-0.0615 0.415931,0.01931 0.0467,0.01959 0.08601,0.05599 0.119081,0.09434 0.0087,0.01004 0.0073,0.04719 -0.0035,0.03961 -0.06251,-0.04364 -0.230822,-0.258471 -0.267986,-0.303785 -0.394464,-0.529644 -0.767175,-1.075227 -1.16976,-1.598878 -0.221271,-0.283295 -0.438216,-0.577164 -0.687996,-0.836586 -0.173707,-0.180414 -0.48039,-0.478921 -0.729631,-0.531484 -0.259299,-0.05468 -0.530008,-8.73e-4 -0.795009,-0.0013 -0.191323,0.162833 -0.405807,0.301844 -0.573971,0.488498 -0.07349,0.08157 -0.09671,0.197442 -0.13629,0.299852 -0.142578,0.368949 -0.19382,0.768022 -0.300035,1.147221 -0.159099,0.666406 -0.306863,1.33625 -0.499467,1.994014 -0.0214,0.06232 -0.04204,0.1249 -0.06418,0.18696 -0.01056,0.0296 -0.03366,0.05656 -0.03389,0.08798 -1.08e-4,0.01448 0.02151,-0.01949 0.03344,-0.02771 0.05928,-0.04091 0.111651,-0.09675 0.179964,-0.119557 0.378463,-0.12635 0.366983,-0.06619 0.723072,0.05878 0.04104,0.04386 0.08809,0.08277 0.123111,0.131567 0.0047,0.0065 -0.0163,0.01455 -0.02215,0.0091 -0.03282,-0.03042 -0.05794,-0.06851 -0.08237,-0.105995 -0.136316,-0.209152 -0.23993,-0.43875 -0.359768,-0.657079 -0.133037,-0.266327 -0.262083,-0.534577 -0.395816,-0.800554 -0.09782,-0.194553 -0.170458,-0.350502 -0.292682,-0.530736 -0.06136,-0.09049 -0.131668,-0.17457 -0.197499,-0.261855 -0.291282,-0.255742 -0.426566,-0.445107 -0.879996,-0.46395 -0.517744,-0.02152 -0.896569,0.266173 -1.14477,0.679468 -0.05012,0.08347 -0.08559,0.1749 -0.128386,0.262349 -0.186373,0.511049 -0.311584,1.040698 -0.458846,1.563915 -0.147153,0.514922 -0.298196,1.032864 -0.536432,1.514507 -0.02135,0.0392 -0.04243,0.07855 -0.0641,0.117584 -0.01048,0.01888 -0.039,0.03561 -0.03232,0.05614 0.005,0.01529 0.0294,-0.01317 0.04466,-0.01823 0.05933,-0.01967 0.116557,-0.05267 0.178975,-0.05591 0.340087,-0.01766 0.31251,0.01243 0.568573,0.169133 -0.107571,-0.05763 -0.195281,-0.155306 -0.283951,-0.237427 -0.153286,-0.141967 -0.303104,-0.287653 -0.460107,-0.425571 -0.331653,-0.282146 -0.749988,-0.641144 -1.212551,-0.648146 -0.627875,-0.0095 -0.643845,0.144754 -1.07641,0.527761 -0.05444,0.110919 -0.118806,0.217492 -0.163303,0.332757 -0.0732,0.189608 -0.10908,0.422134 -0.13733,0.622271 -0.0438,0.31031 -0.06752,0.623381 -0.107275,0.934184 -0.03855,0.326771 -0.07626,0.653098 -0.129905,0.977829 -0.01249,0.0756 -0.02471,0.151294 -0.0406,0.226245 -0.0019,0.0082 -0.02021,0.02439 -0.01212,0.02214 0.493861,-0.136943 0.98443,-0.285501 1.476642,-0.428251 0.120774,0.207462 0.231053,0.421404 0.362321,0.622392 0.0214,0.03278 -0.02146,-0.07534 -0.02999,-0.113548 -0.04197,-0.187841 -0.07149,-0.379204 -0.106526,-0.56841 -0.01357,-0.07332 -0.02716,-0.146638 -0.04074,-0.219959 -0.08952,-0.4928 -0.18475,-0.98457 -0.296624,-1.472868 -0.12156,-0.545251 -0.259623,-1.086402 -0.401675,-1.626649 -0.08233,-0.320925 -0.170876,-0.641279 -0.233164,-0.966771 -0.404246,-1.347493 -2.309891,-0.7758 -1.905643,0.571693 z" /><path
       style="opacity:1;fill:#ffffff;stroke-width:0.264583"
       id="path31"
       d="m 25.021605,34.279575 c 0.155415,0.563361 0.367009,0.62122 1.028146,0.827638 0.09528,0.02975 0.199337,-0.0177 0.296925,-0.03865 0.139758,-0.02999 0.40258,-0.12568 0.543864,-0.174906 0.471668,-0.176524 0.967561,-0.268411 1.463199,-0.346845 0.04792,-0.0013 0.09583,-0.0029 0.143748,-0.0044 0.0072,0.0076 0.03184,0.02109 0.02154,0.02275 -0.266522,0.04313 -0.463203,-0.162274 -0.572928,-0.377801 -0.0195,0.220935 -0.02961,0.445238 -0.02732,0.66762 0.01606,0.09566 0.01902,0.19445 0.04817,0.286965 0.132901,0.421957 0.387496,0.691811 0.799799,0.85417 0.22403,0.08822 0.386958,0.08133 0.618204,0.09517 0.462867,-0.01484 0.921795,-0.08099 1.383382,-0.114668 0.208661,-0.01 0.417528,-0.01765 0.62647,-0.0154 0.05623,5.29e-4 0.112641,-7.94e-4 0.168635,0.0043 0.02267,0.0021 0.08083,-2.3e-5 0.06604,0.01728 -0.0181,0.02119 -0.0557,0.0021 -0.08355,0.0032 -0.301585,-0.134218 -0.172805,-0.04196 -0.385162,-0.261157 -0.0074,-0.0077 -0.02193,-0.03339 -0.0226,-0.02273 -0.0024,0.03689 0.01246,0.07288 0.01717,0.109535 0.01498,0.116846 0.02469,0.239131 0.03519,0.356196 0.02521,0.27673 0.02786,0.559577 0.104701,0.829058 0.02988,0.104783 0.05631,0.212794 0.108966,0.308182 0.07809,0.141456 0.186483,0.263929 0.279725,0.395896 0.207669,0.108026 0.398926,0.256373 0.623007,0.32408 0.386429,0.116763 0.935638,-0.06069 1.301755,-0.18179 0.275947,-0.09127 0.550029,-0.188108 0.82564,-0.2804 0.411372,-0.128032 0.823111,-0.258056 1.241594,-0.361506 0.224423,-0.05548 0.400892,-0.09602 0.628679,-0.110273 0.07608,-0.0048 0.152445,0.0011 0.228669,0.0016 0.0856,0.01775 0.164481,0.01458 0.228222,0.07891 0.05479,0.05531 -0.0066,0.02405 -0.0036,0.06554 0.0016,0.02259 0.01582,0.04247 0.02347,0.06381 0.01262,0.03529 0.0249,0.07071 0.03733,0.106074 0.161542,0.456975 0.239086,0.937274 0.344139,1.408952 0.04384,0.115297 0.07187,0.237929 0.131535,0.345892 0.269353,0.487392 0.666361,0.743749 1.231627,0.751401 0.309756,0.0042 0.484256,-0.09727 0.750763,-0.210053 0.07177,-0.03967 0.144174,-0.07819 0.215297,-0.118996 0.14519,-0.08331 0.284554,-0.177091 0.431191,-0.257916 0.02696,-0.01487 0.110506,-0.05436 0.08277,-0.04101 -0.0589,0.02835 -0.117486,0.05733 -0.176231,0.08599 -0.374267,0.0045 -0.315333,0.05618 -0.627399,-0.129624 -0.03377,-0.02011 -0.04838,-0.06812 -0.08541,-0.08131 -0.0176,-0.0063 0.0068,0.03674 0.01119,0.05488 0.09094,0.373306 0.02548,0.06608 0.108656,0.48913 0.0925,0.444606 0.06915,1.069356 0.347531,1.444811 0.107177,0.144552 0.256402,0.252563 0.384603,0.378843 0.570545,0.174784 0.525428,0.256715 1.097103,0.0744 0.272716,-0.08697 0.659831,-0.446053 0.898107,-0.629518 0.347395,-0.255564 0.777269,-0.339879 1.195295,-0.404194 0.276923,-0.02809 0.555905,-0.02865 0.833739,-0.0172 1.36693,0.0033 1.371637,-1.929805 0.0047,-1.933134 v 0 c -0.390657,0.01008 -0.782187,0.03062 -1.168482,0.09289 -0.69519,0.134687 -1.389983,0.319469 -1.977794,0.73237 -0.128916,0.08961 -0.255249,0.182909 -0.384273,0.272367 -0.03277,0.02273 -0.07242,0.03639 -0.100812,0.06438 -0.01135,0.01119 0.03068,-0.0097 0.04659,-0.01093 0.09725,-0.0072 0.19694,-0.03504 0.292214,-0.01423 0.125069,0.02731 0.234318,0.10319 0.351475,0.154784 0.0633,0.08264 0.138142,0.157602 0.189892,0.247925 0.01815,0.0317 0.04513,0.0889 0.01439,0.108646 -0.02814,0.01807 -0.03199,-0.05938 -0.04093,-0.09161 -0.01995,-0.07196 -0.03171,-0.145976 -0.04528,-0.219408 -0.03671,-0.198681 -0.06313,-0.399177 -0.101335,-0.597601 -0.05996,-0.32938 -0.124577,-0.81357 -0.264057,-1.109557 -0.1549,-0.328705 -0.378833,-0.594659 -0.734425,-0.728779 -0.180888,-0.06823 -0.383987,-0.04532 -0.575982,-0.06798 -0.138589,0.04242 -0.280236,0.0759 -0.415767,0.127257 -0.0587,0.02225 -0.110011,0.06054 -0.164068,0.09246 -0.156051,0.09214 -0.304993,0.196051 -0.46129,0.287808 0.0195,0.05412 -0.0099,-0.01566 0.127664,0.01939 0.196048,0.04996 0.416748,0.160925 0.452853,0.384477 0.0013,0.0089 -0.0181,-2.65e-4 -0.02713,-5.29e-4 -0.157692,-0.576991 -0.265007,-1.169086 -0.47828,-1.729825 -0.156556,-0.327414 -0.20139,-0.486312 -0.454776,-0.75552 -0.334285,-0.355159 -0.726747,-0.546032 -1.205892,-0.617707 -0.140861,-0.02106 -0.284377,-0.01654 -0.426566,-0.02479 -0.141214,0.01077 -0.283155,0.01437 -0.423638,0.03231 -0.732295,0.09346 -1.421926,0.379685 -2.131219,0.568139 -0.249192,0.07328 -0.530217,0.158856 -0.783746,0.222851 -0.08246,0.02082 -0.16588,0.03763 -0.249065,0.05532 -0.03852,0.0082 -0.09624,-0.01172 -0.116001,0.02236 -0.07676,0.132307 1.194159,-0.193908 0.374173,0.265641 0.02442,0.05611 0.05391,0.110279 0.07325,0.168336 0.0019,0.0054 -0.01122,0.01519 -0.01381,0.01011 -0.02379,-0.04656 -0.03822,-0.179062 -0.04257,-0.216656 -0.01468,-0.127133 -0.02151,-0.255091 -0.03808,-0.382035 -0.03568,-0.337521 -0.0569,-0.828114 -0.205621,-1.126276 -0.236278,-0.473704 -0.289571,-0.428236 -0.717881,-0.705442 -0.115744,-0.02888 -0.229608,-0.06677 -0.347236,-0.08663 -0.130699,-0.02207 -0.334717,-0.01569 -0.470747,-0.01177 -0.238006,0.0068 -0.475697,0.02146 -0.713422,0.0343 -0.390057,0.02463 -0.779521,0.06055 -1.170107,0.07465 -0.0072,0.0013 -0.02757,-7.94e-4 -0.02167,0.0036 0.174596,0.129037 -0.08599,-0.17425 0.215998,0.135622 0.127153,0.130474 0.213812,0.286761 0.204258,0.471176 -0.02397,-0.0849 -0.0011,-0.212633 0.0016,-0.297456 0.0074,-0.21967 0.01072,-0.43979 -0.02135,-0.658119 -0.09704,-0.35669 -0.09438,-0.500801 -0.385109,-0.795837 -0.393097,-0.398926 -0.929439,-0.419548 -1.441379,-0.336188 -0.571098,0.111252 -1.141997,0.228034 -1.69963,0.396039 -0.0636,0.01696 -0.126837,0.03535 -0.190808,0.05086 -0.02157,0.0052 -0.04851,-0.0029 -0.06561,0.0113 -0.01453,0.01201 0.03962,-0.01225 0.05642,-0.0037 0.234997,0.119488 0.483623,0.221742 0.691438,0.38396 0.09205,0.07185 0.131744,0.249413 0.16342,0.367187 -0.276641,-1.383213 -2.232799,-0.991982 -1.956156,0.391231 z" /><path
       style="opacity:1;fill:#ffffff;stroke-width:0.264583"
       id="path32"
       d="m 56.877317,23.357151 c -0.0086,0.01415 -0.01312,0.03187 -0.02588,0.04246 -0.0087,0.0072 0.0062,-0.02216 0.01265,-0.03148 0.06248,-0.09101 0.15866,-0.180183 0.237067,-0.248418 0.228777,-0.199099 0.400187,-0.315548 0.650983,-0.499598 0.405929,-0.280536 0.815232,-0.557332 1.236543,-0.814477 0.233527,-0.142531 0.380056,-0.23525 0.626711,-0.329819 0.06236,-0.02391 0.128246,-0.03734 0.192371,-0.05601 0.0044,0.01265 0.02405,0.02989 0.01333,0.03794 -0.03115,0.02342 -0.07239,0.03716 -0.111342,0.03574 -0.243914,-0.0089 -0.375571,-0.100513 -0.516266,-0.281698 -0.01839,0.198021 -0.05767,0.391726 -0.100989,0.585484 -0.02318,0.13679 -0.09074,0.265363 -0.107667,0.403432 -0.05893,0.480799 -0.04933,0.9186 0.600753,1.201153 0.313454,0.136239 0.677418,-0.09144 1.016127,-0.137166 0.08634,-0.07894 0.177689,-0.152718 0.259006,-0.236817 0.08293,-0.08577 0.298995,-0.361735 0.376417,-0.461626 0.188899,-0.243714 0.376685,-0.486408 0.57308,-0.724229 0.394999,-0.428002 0.79576,-0.899794 1.263933,-1.249344 0.156286,-0.109858 0.159414,-0.0021 0.074,0.0052 -0.136718,0.01171 -0.279017,0.03209 -0.411647,-0.0031 -0.245166,-0.06506 -0.290576,-0.165354 -0.410086,-0.329362 0.0524,0.515787 7.94e-4,1.036018 -0.04328,1.550588 -0.02755,0.288442 -0.05864,0.57656 -0.09291,0.864281 -0.0097,0.08107 -0.05187,0.406053 -0.05703,0.490325 -0.006,0.09722 -0.0043,0.19475 -0.0064,0.292125 0.15444,0.629958 0.0867,0.805257 1.039956,1.056975 0.218159,0.05761 0.446174,-0.08997 0.651647,-0.183208 0.134424,-0.061 0.238091,-0.175059 0.350015,-0.271305 0.17323,-0.148962 0.354494,-0.357466 0.507688,-0.524885 0.08256,-0.09443 0.165682,-0.188375 0.247676,-0.283299 0.224774,-0.260217 0.279987,-0.333844 0.51077,-0.58977 0.255715,-0.28357 0.525841,-0.551369 0.798521,-0.8184 0.174315,-0.165175 0.314213,-0.300063 0.491939,-0.459721 0.07035,-0.0632 0.137264,-0.130905 0.213644,-0.186663 0.03284,-0.02397 0.07049,-0.0527 0.11108,-0.05038 0.02024,0.0012 -0.0063,0.04852 -0.02548,0.05527 -0.107802,0.03805 -0.223533,0.04804 -0.335301,0.07206 0.0576,0.351647 -0.251603,-0.179111 -0.281583,-0.08569 -0.01294,0.04036 0.03258,0.07834 0.04603,0.118532 0.02336,0.0698 0.04595,0.139968 0.0644,0.211229 0.07016,0.271112 0.0784,0.362447 0.125402,0.64602 0.09415,0.674428 0.127087,1.354985 0.179202,2.033355 0.02574,0.178264 0.0549,0.491201 0.150455,0.645516 0.279752,0.451789 0.501155,0.661865 1.061114,0.699773 0.362154,0.02452 0.617241,-0.142677 0.912598,-0.29306 0.551839,-0.347081 1.063453,-0.752441 1.599785,-1.12233 0.541806,-0.357706 1.11338,-0.667503 1.690029,-0.964674 0.07016,-0.03093 0.137017,-0.07085 0.210486,-0.0928 0.01728,-0.0052 0.03964,0.0014 0.05212,0.01436 0.0074,0.0077 0.0016,0.02877 -0.0089,0.03057 -0.06655,0.01146 -0.136675,0.02089 -0.202509,0.0058 -0.244861,-0.05597 -0.258646,-0.135254 -0.412462,-0.318989 -0.0016,0.01758 -0.0047,0.03508 -0.0048,0.05273 -0.0026,0.281851 0.01352,0.100821 -0.0084,0.418958 -0.01643,0.238372 -0.04948,0.475245 -0.07981,0.712106 -0.01662,0.121312 -0.05758,0.388454 -0.05314,0.502631 0.01214,0.312579 0.05885,0.7118 0.315809,0.939833 0.205936,0.182757 0.467241,0.308534 0.732851,0.381073 0.17222,0.04704 0.356293,-0.02331 0.53444,-0.03497 0.12919,-0.04213 0.259995,-0.0796 0.387575,-0.126391 0.157024,-0.05759 0.468799,-0.198857 0.624509,-0.268301 0.289745,-0.129222 0.577694,-0.26217 0.865968,-0.394632 0.102719,-0.0421 0.203562,-0.08912 0.30816,-0.126315 0.280059,-0.09958 0.52845,-0.158353 0.822251,-0.217558 0.542017,-0.109225 1.088586,-0.171569 1.637832,-0.229606 0.461946,-0.02729 0.925737,-0.107431 1.387678,-0.03419 0.161028,0.02553 0.286938,0.05659 0.396084,0.174393 -0.148465,-0.05819 -0.231301,-0.0649 -0.306176,-0.253252 -0.04791,-0.120526 -0.04093,-0.256183 -0.065,-0.383629 -0.0016,-0.0086 -0.0057,-0.02964 -0.01188,-0.02343 -0.03527,0.03546 -0.05635,0.08271 -0.08666,0.122484 -0.04666,0.06122 -0.09611,0.120263 -0.144174,0.180394 -0.379468,0.44098 -0.813413,0.830562 -1.240665,1.224 -0.247428,0.222708 -0.125405,0.113126 -0.366051,0.328769 -0.980655,0.9171 0.316317,2.303955 1.296974,1.386857 v 0 c 0.230666,-0.225304 0.110964,-0.109342 0.359301,-0.347681 0.471387,-0.455279 0.944534,-0.909723 1.388285,-1.392324 0.209532,-0.244427 0.601655,-0.684516 0.665192,-1.00007 0.04877,-0.242199 0.07481,-0.498314 0.02693,-0.74069 -0.08357,-0.423072 -0.356745,-0.561679 -0.653894,-0.799852 -0.333623,-0.143258 -0.384214,-0.187718 -0.755763,-0.249222 -0.689513,-0.114138 -1.386589,0.01233 -2.074045,0.07096 -0.977424,0.103685 -1.972961,0.191467 -2.921241,0.466108 -0.140512,0.0407 -0.276151,0.09665 -0.414226,0.144974 -0.474361,0.202053 -0.938462,0.431962 -1.42698,0.598356 0.257333,0.05365 0.296285,0.04152 0.558572,0.348854 0.06307,0.0739 0.07175,0.182081 0.08793,0.277875 0.0052,0.0308 -0.01595,0.119781 -0.02574,0.09011 -0.0413,-0.125313 0.06919,-0.274542 0.02948,-0.394734 0.04206,-0.390441 0.08355,-0.781671 0.09207,-1.174645 0.0026,-0.122512 0.0084,-0.245359 1.4e-4,-0.367622 -0.0099,-0.147618 -0.03645,-0.293654 -0.05467,-0.440481 -0.09992,-0.19856 -0.158347,-0.42419 -0.299778,-0.59568 -0.118867,-0.144134 -0.287107,-0.247538 -0.457964,-0.32312 -0.427403,-0.189073 -0.897589,-0.09835 -1.309759,0.06665 -0.0968,0.03875 -0.185854,0.09457 -0.278781,0.141859 -0.623742,0.345706 -1.242113,0.701102 -1.845334,1.081803 -0.117822,0.07852 -0.473226,0.314539 -0.591767,0.396812 -0.278821,0.193518 -0.547637,0.403417 -0.843333,0.571452 -0.02593,0.01443 -0.105444,0.03263 -0.07776,0.04328 0.39689,0.152671 0.02154,-0.312875 0.562382,0.182811 0.0964,0.08835 0.143148,0.219549 0.201573,0.336533 0.0046,0.0092 -0.01871,0.02943 -0.02339,0.02024 -0.02283,-0.04487 -0.02694,-0.09703 -0.0404,-0.145549 -0.09634,-0.702491 -0.149153,-1.410336 -0.245419,-2.112933 -0.100047,-0.698707 -0.236437,-1.701864 -0.808585,-2.188327 -0.154485,-0.131348 -0.35319,-0.199317 -0.529783,-0.298975 -0.232106,-0.0031 -0.467112,-0.04609 -0.696318,-0.0094 -0.151825,0.02431 -0.287935,0.111422 -0.421097,0.188298 -0.400738,0.231352 -0.717804,0.658897 -1.057884,0.96643 -0.547383,0.557501 -1.083945,1.124398 -1.607537,1.704363 -0.06459,0.06402 -0.127688,0.129595 -0.193783,0.192065 -0.04939,0.04668 -0.102695,0.08906 -0.152538,0.135257 -0.0079,0.0073 -0.03114,0.02538 -0.0204,0.02502 0.118941,-0.004 0.24924,-0.09059 0.355171,-0.03635 0.756436,0.387283 0.695516,0.340604 0.732161,0.820174 -0.03937,-0.126068 -0.02339,-0.04931 -0.0082,-0.270553 0.02662,-0.386321 0.06837,-0.771517 0.09781,-1.157612 0.02548,-0.345152 0.04856,-0.690134 0.06402,-1.035911 0.01069,-0.239356 0.02595,-0.522518 0.01048,-0.762024 -0.0089,-0.138074 -0.03126,-0.27495 -0.04689,-0.412424 -0.07188,-0.181729 -0.100306,-0.387413 -0.21563,-0.545186 -0.316754,-0.433353 -0.621255,-0.514739 -1.136904,-0.516232 -0.123251,-3.44e-4 -0.241895,0.05202 -0.357169,0.09564 -0.262916,0.09949 -0.365387,0.194149 -0.588531,0.35404 -0.08428,0.07433 -0.170916,0.146068 -0.252841,0.222986 -0.07546,0.07085 -0.14645,0.146319 -0.219067,0.220081 -0.337982,0.343309 -0.669901,0.692751 -0.992069,1.050965 -0.261368,0.294477 -0.508227,0.602316 -0.772514,0.894058 -0.02899,0.032 -0.06194,0.06026 -0.09077,0.0924 -0.0036,0.004 0.0097,-0.0049 0.0145,-0.0074 0.277911,-0.0072 0.592868,-0.16037 0.833729,-0.02155 0.617297,0.355781 0.579017,0.599836 0.501917,1.014053 -0.0043,0.02329 0.0041,-0.04732 0.0089,-0.07052 0.02289,-0.110716 0.05847,-0.218574 0.07825,-0.330021 0.09967,-0.470476 0.178763,-0.952021 0.09848,-1.432308 -0.07902,-0.279741 -0.09776,-0.444216 -0.290571,-0.684363 -0.322908,-0.402185 -0.759661,-0.576126 -1.269965,-0.516161 -0.139576,0.0164 -0.272032,0.07071 -0.408049,0.106072 -0.115832,0.05365 -0.234315,0.101923 -0.347498,0.160963 -0.266481,0.139005 -0.501417,0.295831 -0.752108,0.461323 -0.42505,0.280597 -0.843703,0.570926 -1.273137,0.844906 -0.574554,0.374915 -1.239203,0.749424 -1.622542,1.338889 -0.03969,0.06103 -0.0696,0.127896 -0.104407,0.191844 -0.480465,1.321283 1.388113,2.000766 1.868577,0.679482 z" /><path
       style="opacity:1;fill:#ffffff;stroke-width:0.264583"
       id="path33"
       d="m 75.267853,31.963997 c 0.334037,0.28937 0.738402,0.483569 1.130599,0.67972 0.411081,0.2056 0.483151,0.238985 0.902357,0.442405 0.698658,0.339444 1.398529,0.678442 2.06267,1.082421 0.04112,0.03303 0.08415,0.06382 0.123354,0.09911 0.02175,0.01958 0.05059,0.03697 0.05897,0.065 0.0043,0.01437 -0.03323,-0.0011 -0.04323,-0.01233 -0.06597,-0.07358 -0.16288,-0.138572 -0.179435,-0.236 -0.04375,-0.257477 -0.09167,-0.541348 0.0062,-0.783476 0.08393,-0.207598 0.32961,-0.303189 0.494413,-0.454784 0.02461,-0.0064 0.0992,-0.01802 0.0738,-0.01926 -0.0614,-0.003 -0.122475,0.0113 -0.183896,0.01381 -0.100983,0.0041 -0.202081,0.0053 -0.303146,0.006 -0.379688,0.0028 -0.759635,-0.0059 -1.139299,-0.0092 -0.764018,0.01119 -1.524486,-0.0783 -2.287624,-0.08996 -0.379899,0.01664 -0.773507,0.109424 -1.065554,0.370057 -0.200094,0.178573 -0.222139,0.239234 -0.35361,0.44495 -0.05803,0.08445 -0.08646,0.184118 -0.136067,0.272807 -0.01225,0.02188 0.01445,-0.04922 0.02969,-0.06913 0.04894,-0.06392 0.105413,-0.121787 0.161042,-0.179977 0.03919,-0.04099 0.07138,-0.03572 0.0084,-0.03263 -0.634455,0.04183 -1.27054,-0.04838 -1.899933,-0.118412 -0.505103,-0.05191 -1.006308,-0.134016 -1.509363,-0.201329 -0.336466,-0.04502 -0.588669,-0.08343 -0.930606,-0.06706 -0.152342,0.0073 -0.302765,0.03713 -0.454149,0.0557 -0.436611,0.09973 -0.811017,0.295031 -1.129515,0.611246 -0.25174,0.249938 -0.404582,0.535138 -0.563075,0.845698 -0.198721,0.393155 -0.285279,0.838552 -0.524561,1.21099 -0.02169,-0.0064 -0.0072,-0.06743 -0.02955,-0.06678 -0.04121,0.0013 -0.0808,0.01656 -0.121555,0.02281 -0.173779,0.02657 -0.208587,0.02535 -0.391978,0.0391 -0.399555,0.0293 -0.804817,-0.0045 -1.201894,0.05945 -0.102451,0.01648 -0.203067,0.04289 -0.304598,0.06433 -0.427451,0.132897 -0.817232,0.364511 -1.138164,0.677524 -0.180821,0.176363 -0.28693,0.319754 -0.442402,0.513614 -0.327826,0.410745 -0.572211,0.877509 -0.871058,1.307899 -0.01342,0.0056 -0.08324,0.03844 -0.100963,0.03022 -0.01058,-0.0049 0.0083,-0.02975 -0.0021,-0.03489 -0.02482,-0.0122 -0.05533,-0.0028 -0.08269,-0.0069 -0.08792,-0.0131 -0.188939,-0.04251 -0.272331,-0.06409 -0.452231,-0.154649 -0.882163,-0.368216 -1.311018,-0.577665 -0.211259,-0.105915 -0.118258,-0.05365 -0.281577,-0.152133 -1.226783,-0.607142 -2.085412,1.127794 -0.858629,1.734936 v 0 c 0.222269,0.09389 0.107305,0.04503 0.344845,0.146691 0.558543,0.242064 1.112705,0.501168 1.696913,0.676317 0.348173,0.07315 0.501145,0.126381 0.866002,0.113604 0.472641,-0.01656 0.91884,-0.176493 1.277181,-0.488209 0.108826,-0.09466 0.197059,-0.210674 0.295587,-0.31601 0.262329,-0.396089 0.496636,-0.810641 0.779553,-1.19298 0.1549,-0.197408 0.314528,-0.388869 0.541395,-0.506897 0.146807,-0.04703 0.288275,-0.05703 0.442545,-0.06556 0.258249,-0.01429 0.517044,-0.0186 0.77497,-0.03908 0.498713,-0.04205 1.011378,-0.08845 1.455007,-0.346919 0.317876,-0.185198 0.372999,-0.303673 0.596749,-0.580369 0.04608,-0.08495 0.09552,-0.168164 0.138224,-0.25486 0.167447,-0.339968 0.265165,-0.708834 0.424707,-1.052192 0.05107,-0.105799 0.11381,-0.206176 0.163872,-0.312047 0.02867,-0.06062 -0.0039,-0.04416 0.06179,-0.100467 0.02656,-0.02276 0.05786,-0.03932 0.08679,-0.05898 0.05579,-0.01733 0.109831,-0.0419 0.16737,-0.052 0.246441,-0.04328 0.409771,-0.01929 0.669284,0.0053 0.505873,0.0479 1.009248,0.122264 1.512938,0.187976 0.723289,0.104656 0.290505,0.04104 0.992378,0.146423 0.501888,0.07536 1.00888,0.156146 1.517073,0.08823 0.10872,-0.02397 0.220263,-0.03755 0.326155,-0.07192 0.404466,-0.131281 0.761182,-0.396894 0.909013,-0.806779 -0.05444,0.04589 -0.10078,0.09864 -0.170945,0.119124 -0.06227,0.01818 -0.109587,0.01127 -0.09584,-0.0033 0.01786,-0.01889 0.04821,-0.01945 0.07232,-0.02918 0.16356,-0.01722 0.304398,-0.03497 0.471329,-0.03805 0.570243,-0.0105 1.140981,0.03822 1.710282,0.06008 0.375076,0.01241 0.750591,0.02122 1.125257,0.04355 0.03823,0.0024 0.602954,0.04454 0.650634,0.0433 0.135279,-0.0035 0.269439,-0.02558 0.404159,-0.0384 0.225626,-0.170786 0.545121,-0.261929 0.676879,-0.51236 0.136072,-0.258625 0.09472,-0.585843 0.05311,-0.875104 -0.02024,-0.140785 -0.141579,-0.2481 -0.23063,-0.359011 -0.151823,-0.189095 -0.436242,-0.316023 -0.636656,-0.440121 -0.715028,-0.367289 -1.451999,-0.687811 -2.174626,-1.039527 -0.307324,-0.159223 -0.513678,-0.259932 -0.808371,-0.435969 -0.100108,-0.0598 -0.198242,-0.123011 -0.29432,-0.189093 -0.07834,-0.05388 -0.217977,-0.139218 -0.268486,-0.239519 -0.947833,-1.034 -2.410132,0.30644 -1.462296,1.34044 z" /><path
       style="opacity:1;fill:#ffffff;stroke-width:0.264583"
       id="path34"
       d="m 25.130693,36.099276 c -0.02508,0.302995 -0.02097,0.607637 -0.03645,0.911556 -0.02601,0.599686 -0.04066,1.199483 -0.04665,1.799666 -0.0073,0.71351 -0.01864,1.426869 -0.02173,2.140424 -0.0039,0.681363 -0.005,1.362623 0.0042,2.043935 0.0015,0.679675 0.04158,1.358234 0.07888,2.036617 0.03607,0.695193 0.07115,1.390409 0.104129,2.085756 0.04462,0.729109 0.04888,1.458952 0.04333,2.189056 -0.01981,0.772711 -0.0435,1.545413 -0.07236,2.317843 -0.02352,0.694695 -0.05672,1.388917 -0.09462,2.082951 -0.02793,0.563538 -0.07247,1.125839 -0.11657,1.688256 -0.04138,0.513791 -0.08253,1.027562 -0.116089,1.541933 -0.03191,0.575564 -0.101295,1.148538 -0.105744,1.725189 0.03602,0.618072 0.255785,1.215033 0.708089,1.652109 0.09831,0.095 0.212321,0.172267 0.318482,0.258402 0.315005,0.197562 0.656232,0.367311 1.019679,0.456428 0.436452,0.107016 0.885849,0.12601 1.332072,0.151781 0.899686,0.03751 1.800587,-0.0026 2.699782,-0.03689 0.858112,-0.03332 1.716209,-0.06926 2.575075,-0.06793 0.795872,0.0061 1.591329,0.0403 2.384944,0.09958 0.909195,0.06164 1.801556,0.243078 2.686859,0.450236 1.158013,0.294473 2.293774,0.667713 3.430572,1.033727 1.365586,0.43421 2.729034,0.874548 4.089403,1.324851 1.01573,0.338976 2.027996,0.688191 3.041306,1.034314 0.645461,0.223647 1.292328,0.443484 1.935263,0.674336 0.393604,0.147314 0.795292,0.272364 1.187762,0.42264 0.22456,0.08705 0.449413,0.173117 0.673219,0.262075 1.293849,0.498885 1.999377,-1.330894 0.70553,-1.829777 v 0 c -0.235146,-0.08792 -0.471533,-0.172283 -0.707192,-0.25882 -0.409509,-0.146024 -0.826666,-0.269031 -1.238697,-0.407683 -0.65713,-0.21503 -1.315569,-0.426149 -1.973773,-0.637863 -1.025742,-0.322556 -2.051934,-0.643684 -3.078123,-0.964806 -1.367385,-0.421693 -2.725007,-0.871387 -4.074702,-1.346734 -1.175959,-0.383763 -2.356768,-0.754243 -3.551851,-1.074481 -0.982099,-0.256371 -1.975446,-0.485101 -2.990549,-0.559729 -0.837239,-0.05809 -1.676582,-0.08625 -2.515838,-0.08957 -0.884595,-0.0024 -1.767628,0.03268 -2.651196,0.07429 -0.837504,0.03285 -1.676443,0.06238 -2.514214,0.01902 -0.446273,-0.02846 -0.900179,-0.04626 -1.301578,-0.266036 -0.161295,-0.07639 -0.242843,-0.209375 -0.263327,-0.386686 -0.01654,-0.524978 0.05677,-1.048922 0.09134,-1.571982 0.04187,-0.514313 0.0791,-1.028951 0.120862,-1.543275 0.03832,-0.578797 0.07218,-1.157848 0.100991,-1.737201 0.02791,-0.70191 0.05402,-1.40385 0.07689,-2.105946 0.02635,-0.786418 0.04582,-1.573048 0.06762,-2.359601 0.01439,-0.76784 0.01384,-1.535793 -0.035,-2.302632 -0.03254,-0.700281 -0.0527,-1.401143 -0.100819,-2.100609 -0.03558,-0.653304 -0.05808,-1.307076 -0.07001,-1.961266 -0.01085,-0.670021 -0.0113,-1.340107 -0.0109,-2.010207 0.0011,-0.705643 0.01035,-1.411075 0.02567,-2.116547 0.01214,-0.567571 0.03357,-1.135272 0.08617,-1.700737 0.01458,-0.182599 0.02657,-0.365461 0.04285,-0.54792 0.0031,-0.0344 0.0062,-0.06882 0.01037,-0.103108 0.0019,-0.01532 -0.0043,-0.0553 0.0077,-0.04561 0.01249,0.01008 -0.0032,0.03194 -0.0048,0.04791 0.276641,-1.383213 -1.679515,-1.774444 -1.956157,-0.391232 z" /><path
       style="opacity:1;fill:#ffffff;stroke-width:0.264583"
       id="path35"
       d="m 79.082534,35.827287 c 0.08016,0.596974 0.187521,1.190556 0.270423,1.787562 0.13172,1.018805 0.202594,2.044216 0.281768,3.068095 0.08238,0.953386 0.109437,1.910043 0.127481,2.866406 0.01508,0.807037 0.01955,1.614151 0.02048,2.421308 -0.0051,0.72177 -0.03089,1.44317 -0.04919,2.164678 -0.0146,0.544197 -0.04029,1.087966 -0.07848,1.631005 -0.02867,0.440489 -0.08127,0.878874 -0.119374,1.318578 -0.02988,0.34409 -0.06176,0.688326 -0.103495,1.031218 -0.03335,0.258435 -0.06144,0.517422 -0.099,0.775288 -0.02516,0.161221 -0.04837,0.323217 -0.08269,0.482806 -0.267907,1.366364 1.664422,1.745245 1.932331,0.378881 v 0 c 0.03658,-0.197006 0.06981,-0.394822 0.0955,-0.593564 0.03605,-0.275272 0.0634,-0.551471 0.09446,-0.827341 0.03721,-0.361125 0.06654,-0.723109 0.09459,-1.085043 0.03666,-0.451766 0.07815,-0.903187 0.107053,-1.355548 0.03481,-0.573249 0.05055,-1.147228 0.0621,-1.721382 0.0083,-0.732343 0.0145,-1.464701 0.02283,-2.197042 0.0031,-0.823994 -0.0019,-1.647862 -0.03459,-2.471361 -0.0317,-0.989801 -0.06864,-1.979666 -0.147513,-2.967064 -0.08747,-1.047808 -0.181038,-2.095095 -0.278048,-3.142065 -0.04829,-0.471548 -0.108463,-0.945832 -0.132109,-1.419558 -0.0039,-0.07928 -0.0019,-0.08674 0.0045,-0.145857 0,-1.40643 -1.98899,-1.40643 -1.98899,0 z" /><path
       style="opacity:1;fill:#ffffff;stroke-width:0.264583"
       id="path36"
       d="m 57.455355,37.195183 c -0.10782,0.03084 -0.205462,0.0859 -0.30775,0.130154 -0.159441,0.06273 -0.317426,0.129283 -0.47412,0.19858 -0.190984,0.08238 -0.383601,0.16111 -0.578104,0.234794 -0.148654,0.05136 -0.294659,0.112313 -0.44526,0.15802 -0.119991,0.03642 -0.206118,0.05475 -0.328297,0.08365 -0.186952,0.0426 -0.37505,0.0802 -0.562076,0.12243 -0.07963,0.01799 -0.158583,0.03892 -0.238416,0.05594 -0.18578,0.03962 -0.329544,0.06201 -0.516945,0.09384 -0.494157,0.07637 -0.98991,0.143492 -1.482426,0.229952 -0.47362,0.08349 -0.951741,0.136292 -1.429264,0.191326 -0.384706,0.04343 -0.771226,0.04844 -1.15775,0.04099 -0.208439,-0.01156 -0.417978,-0.01791 -0.625197,-0.04523 -0.122383,-0.01614 -0.16015,-0.02582 -0.279469,-0.04992 -0.315458,-0.06882 -0.616252,-0.187629 -0.913323,-0.311571 -0.294336,-0.126383 -0.582679,-0.266006 -0.873758,-0.399576 -0.217233,-0.0996 -0.431527,-0.205391 -0.647379,-0.307911 -0.07504,-0.03356 -0.148643,-0.07008 -0.22178,-0.107546 -1.255974,-0.547703 -2.030542,1.228514 -0.774567,1.776214 v 0 c 0.07682,0.02887 0.153821,0.05727 0.230367,0.08687 0.221118,0.08738 0.441373,0.177059 0.660551,0.269189 0.309391,0.129128 0.618866,0.258054 0.928801,0.385871 0.403437,0.162807 0.812761,0.313614 1.237875,0.410285 0.07677,0.01614 0.153122,0.03443 0.230319,0.0484 0.344393,0.06231 0.694455,0.07981 1.043879,0.07627 0.460947,-0.0059 0.922404,-0.02389 1.380385,-0.07926 0.496609,-0.06363 0.988269,-0.160155 1.484738,-0.22543 0.501923,-0.0684 1.001599,-0.15281 1.500272,-0.241615 0.198959,-0.03277 0.331274,-0.05616 0.531254,-0.0827 0.08516,-0.0113 0.170786,-0.01884 0.255929,-0.03025 0.213723,-0.02861 0.426218,-0.06695 0.637376,-0.110373 0.343339,-0.07224 0.691666,-0.129689 1.020898,-0.255093 0.215717,-0.07532 0.431133,-0.151268 0.64404,-0.234283 0.135687,-0.04866 0.269653,-0.102328 0.40766,-0.144294 0.06253,-0.01918 0.125108,-0.03992 0.1881,-0.05757 0.0059,-0.0016 0.02188,-0.0081 0.01812,-0.0032 -0.01355,0.0176 -0.05006,0.0067 -0.06162,0.02532 1.366324,-0.34158 0.883255,-2.273859 -0.483071,-1.932276 z" /><path
       style="opacity:1;fill:#ffffff;stroke-width:0.264583"
       id="path37"
       d="m 47.573257,39.702943 c -0.02987,-0.0016 -0.121459,-0.006 -0.121631,-0.006 -0.0093,-0.0032 0.01135,-0.01804 0.02072,-0.02101 0.04313,-0.01357 0.08797,-0.02193 0.132858,-0.02734 0.08061,-0.0097 0.314354,-0.01373 0.387424,-0.01566 0.488555,0.01032 0.975132,0.05859 1.458965,0.124725 0.212802,0.02984 0.424379,0.06786 0.636897,0.09952 0.180033,0.02683 0.360471,0.05096 0.540486,0.07803 0.270094,0.04151 0.538882,0.09111 0.807251,0.142478 0.148982,0.02943 0.07547,0.01445 0.220546,0.04485 1.302245,0.214215 1.605193,-1.627438 0.302946,-1.841653 v 0 c -0.15012,-0.0181 -0.07342,-0.0084 -0.230077,-0.02914 -0.295844,-0.03997 -0.593066,-0.06745 -0.890508,-0.09257 -0.39997,-0.03499 -0.799965,-0.06825 -1.200756,-0.09262 -0.508005,-0.04319 -1.01415,-0.103566 -1.519949,-0.167378 -0.04654,-0.0077 -0.345329,-0.05602 -0.406379,-0.0698 -0.05393,-0.01217 -0.105912,-0.03208 -0.159784,-0.04453 -0.135337,-0.03128 -0.27242,-0.04333 -0.410864,-0.02527 -1.374169,0.305371 -0.942308,2.248736 0.431858,1.943367 z" /><path
       style="opacity:1;fill:#ffffff;stroke-width:0.264583"
       id="path38"
       d="m 56.511023,37.692134 c 0.0096,0.0013 0.03797,0.0011 0.02877,0.0041 -0.03788,0.01252 -0.07828,0.01561 -0.117044,0.02508 -0.03577,0.0087 -0.07119,0.01886 -0.106455,0.02943 -0.107505,0.0322 -0.21051,0.07273 -0.31355,0.116845 -0.03881,0.02064 -0.07661,0.0433 -0.116437,0.06192 -0.287005,0.134189 -0.608748,0.204504 -0.916115,0.274346 -0.386056,0.08725 -0.779026,0.133276 -1.172011,0.174993 -0.400947,0.03027 -0.803021,0.02283 -1.204654,0.02027 -0.381338,-0.0016 -0.759658,-0.04958 -1.136925,-0.09994 -0.218236,-0.03105 -0.435938,-0.06583 -0.6521,-0.109087 -1.316998,-0.138835 -1.513337,1.723683 -0.196339,1.862516 v 0 c 0.230164,0.0042 0.4602,0.01281 0.690134,0.02397 0.08271,0.0038 0.294915,0.01328 0.373935,0.01765 0.221136,0.01225 0.441931,0.03016 0.663036,0.04278 0.07697,0.0044 0.154016,0.0073 0.231023,0.01095 0.07671,0.0019 0.153406,0.0055 0.230135,0.0053 0.07113,-2.3e-4 0.142195,-0.0042 0.21328,-0.0067 0.308298,-0.01077 0.616445,-0.02696 0.924171,-0.04859 0.08295,-0.0047 0.166003,-0.0078 0.248846,-0.01408 0.147342,-0.01122 0.336273,-0.03263 0.482293,-0.05491 0.154295,-0.02355 0.30012,-0.05382 0.452859,-0.08531 0.07547,-0.01556 0.150825,-0.03169 0.226237,-0.04753 0.35307,-0.07601 0.7063,-0.160491 1.063837,-0.213376 0.05106,-0.0075 0.102499,-0.0123 0.153749,-0.01847 0.0064,-0.0011 0.129143,-0.0269 0.149299,-0.01738 0.0028,0.0013 -0.0016,0.0069 -0.0043,0.0082 -0.01355,0.0064 -0.05523,0.0059 -0.0427,0.01416 0.01865,0.01222 0.04459,0.0011 0.06688,0.0016 1.399196,-0.155466 1.179332,-2.134224 -0.219861,-1.978757 z" /><path
       style="opacity:1;fill:#ffffff;stroke-width:0.264583"
       id="path39"
       d="m 55.66997,37.950621 c -0.07587,0.03252 -0.149764,0.06915 -0.225964,0.101148 -0.0553,0.03132 -0.117452,0.04847 -0.176819,0.07019 -0.108479,0.03969 0.01741,-0.0021 -0.09321,0.0336 -0.14862,0.05086 -0.301371,0.09034 -0.455065,0.122669 -0.210463,0.03949 -0.423175,0.06445 -0.63527,0.09301 -0.220218,0.02514 -0.441439,0.03785 -0.662892,0.04462 -0.202751,0.0038 -0.405562,-1.45e-4 -0.608299,0.0038 -0.177191,-0.003 -0.354113,-0.01635 -0.530947,-0.0277 -0.183523,-0.01299 -0.366326,-0.03413 -0.549193,-0.05402 -0.141261,-0.01715 -0.283411,-0.02839 -0.424307,-0.04825 -0.119039,-0.01921 -0.238771,-0.03381 -0.358,-0.05176 -0.01741,-0.0028 -0.03475,-0.0061 -0.05221,-0.0085 -0.09247,-0.01275 -0.01551,0.0016 -0.123325,-0.01667 -0.07037,-0.01199 -0.139417,-0.02855 -0.208465,-0.04643 -1.325663,-0.273685 -1.712714,1.601087 -0.387049,1.874772 v 0 c 0.07828,0.01249 0.155866,0.02641 0.233302,0.04348 0.0079,0.0019 0.166203,0.03831 0.170098,0.0391 0.02566,0.0052 0.05162,0.0088 0.07742,0.01312 0.141446,0.0218 0.283387,0.04056 0.426066,0.0523 0.162978,0.0164 0.32593,0.03178 0.489778,0.03683 0.192244,0.01058 0.383996,0.0264 0.575744,0.04377 0.219673,0.01614 0.43955,0.02236 0.659821,0.02209 0.227875,0.0039 0.455239,-0.0086 0.682617,-0.02302 0.263734,-0.01246 0.527587,-0.02458 0.789884,-0.0565 0.251646,-0.0217 0.501994,-0.05469 0.750716,-0.09887 0.124656,-0.0176 0.250486,-0.03176 0.374279,-0.05487 0.06191,-0.01156 0.122944,-0.02741 0.184606,-0.04022 0.03415,-0.0071 0.06837,-0.01386 0.102552,-0.0208 0.0569,-0.01487 0.114181,-0.02837 0.17082,-0.04423 0.08264,-0.02315 0.164084,-0.05098 0.247724,-0.07073 0.0349,-0.01082 0.07247,-0.02381 0.108503,-0.03015 0.0013,-2.46e-4 -0.003,0.0035 -0.0016,0.0039 0.0048,0.0016 0.01693,-0.0046 0.01516,1.69e-4 -0.0024,0.0067 -0.01267,0.0067 -0.019,0.01008 1.354847,-0.387101 0.807406,-2.303142 -0.547441,-1.916044 z" /><path
       style="opacity:1;fill:#ffffff;stroke-width:0.264583"
       id="path40"
       d="m 30.937546,40.774765 c -0.204001,-0.04414 -0.408527,-0.08233 -0.615365,-0.110905 -0.308642,-0.03581 -0.642824,-0.03218 -0.921054,0.126849 -0.06409,0.03663 -0.120325,0.08556 -0.180486,0.128341 -0.05281,0.06541 -0.11775,0.122669 -0.158443,0.196236 -0.201954,0.36511 -0.0896,0.737548 0.04298,1.098111 0.140581,0.314608 0.288729,0.624975 0.414361,0.946044 0.08267,0.235617 0.146839,0.484717 0.144831,0.735939 -0.03212,0.131368 -0.135613,0.224787 -0.229093,0.315777 -0.04736,0.03429 -0.09707,0.02574 -0.15273,0.0303 -0.675857,0.10853 -0.52237,1.064337 0.153487,0.955805 v 0 c 0.05213,-0.0097 0.105072,-0.01585 0.156398,-0.0292 0.198363,-0.05159 0.375883,-0.140253 0.526082,-0.281588 0.236524,-0.24475 0.421928,-0.47906 0.487754,-0.824246 0.01259,-0.066 0.01225,-0.133805 0.01839,-0.200708 -0.0033,-0.05803 -0.004,-0.116252 -0.0098,-0.174093 -0.02964,-0.299521 -0.112353,-0.594704 -0.215305,-0.87622 -0.125544,-0.314087 -0.262368,-0.622972 -0.399608,-0.932069 -0.03721,-0.09719 -0.04161,-0.102846 -0.06967,-0.196144 -0.0058,-0.01918 -0.0069,-0.03999 -0.01561,-0.058 -0.0021,-0.0046 -0.01034,-0.007 -0.01471,-0.0044 -0.125383,0.0768 0.03826,0.0057 -0.07229,0.05019 -0.01294,-0.02043 -0.01331,-0.01259 0.02148,-0.03441 0.09554,-0.05987 0.228799,-0.03219 0.332846,-0.02429 0.163558,0.02625 0.327925,0.05702 0.481777,0.120673 0.677424,0.193551 0.951143,-0.764471 0.27372,-0.958019 z" /><path
       style="opacity:1;fill:#ffffff;stroke-width:0.264583"
       id="path41"
       d="m 31.685592,41.022992 c 7.94e-4,-1.88e-4 0.0016,-2.65e-4 0.0024,-5.29e-4 0.0045,0.0298 0.01077,0.05939 0.01355,0.0894 0.02707,0.294058 0.0061,0.592502 -0.0071,0.886595 -0.02225,0.484491 -0.08088,0.965774 -0.144378,1.446204 -0.0084,0.08036 -0.03009,0.222004 -0.01296,0.305009 0.04619,0.223838 0.131755,0.38902 0.39514,0.464836 0.246427,0.07094 0.346027,-0.02167 0.505788,-0.127108 0.106796,-0.09444 0.209158,-0.192765 0.330615,-0.268341 0.01262,-0.0063 0.165013,-0.06763 0.168098,-0.05394 0.0013,0.0055 -0.01035,0.0046 -0.0155,0.0069 -0.07685,0.01196 -0.151977,-0.0118 -0.215323,-0.0552 -0.01537,-0.01053 -0.02684,-0.02601 -0.04164,-0.03736 -0.0016,-0.0011 -0.006,-7.93e-4 -0.0056,0.0011 0.0041,0.01929 0.01193,0.03758 0.01788,0.05637 0.05031,0.189032 0.08102,0.382345 0.127273,0.572395 0.04005,0.14198 0.0141,0.0646 0.0833,0.230243 0.297812,0.624475 1.180952,0.203306 0.88314,-0.421169 v 0 c -0.01664,0.02368 -0.0039,0.0094 -0.02392,-0.05219 -0.05739,-0.206142 -0.08891,-0.418097 -0.146108,-0.624319 -0.03355,-0.10473 -0.0592,-0.202475 -0.117314,-0.298593 -0.107206,-0.177302 -0.260363,-0.292608 -0.462721,-0.340145 -0.05082,-0.01193 -0.104077,-0.0084 -0.156115,-0.01254 -0.0424,0.0045 -0.08513,0.0065 -0.127196,0.01342 -0.17613,0.02889 -0.340733,0.110802 -0.495991,0.194439 -0.136144,0.08895 -0.264551,0.187598 -0.385886,0.296019 0.275034,-0.138658 0.447717,-0.01736 0.62054,0.199194 0.03106,0.03893 0.02593,0.09646 0.03253,0.14582 5.29e-4,0.0045 -0.0089,-0.0019 -0.01336,-0.0028 -0.0026,-0.03123 -0.0051,-0.06246 -0.0077,-0.09369 0.03814,-0.498049 0.09918,-0.994365 0.121766,-1.493713 0.01733,-0.261927 0.03578,-0.523846 0.0486,-0.786045 0.0024,-0.04999 0.0122,-0.269828 0.01098,-0.33732 -5.29e-4,-0.03278 -0.0048,-0.06539 -0.0072,-0.09809 -0.137967,-0.689835 -1.113544,-0.494721 -0.975575,0.195117 z" /><path
       style="opacity:1;fill:#ffffff;stroke-width:0.264583"
       id="path42"
       d="m 34.617583,42.820568 c -0.04267,0.184111 -0.06174,0.373256 -0.07676,0.561359 -0.02241,0.324363 0.04466,0.643358 0.136078,0.952444 0.04492,0.155461 0.116972,0.299334 0.198895,0.437949 0.370859,0.584729 1.197793,0.06026 0.826934,-0.524475 v 0 c -0.04671,-0.0602 -0.0823,-0.126773 -0.105013,-0.199904 -0.06233,-0.185949 -0.111879,-0.37924 -0.09717,-0.577059 0.01291,-0.114924 0.02596,-0.236725 0.06348,-0.346993 0.0013,-0.0037 -0.0016,0.0076 -0.0024,0.0114 0.222546,-0.667637 -0.721633,-0.982364 -0.944179,-0.314727 z" /><path
       style="opacity:1;fill:#ffffff;stroke-width:0.264583"
       id="path43"
       d="m 34.551411,40.964434 c 0.008,-0.0096 0.03596,-0.03243 0.02402,-0.02876 -0.01204,0.0037 -0.01725,0.01849 -0.02439,0.02888 -0.02341,0.03403 -0.0496,0.06676 -0.06716,0.104143 -0.055,0.11712 -0.06568,0.223763 -0.06685,0.349364 0.0097,0.241588 0.141232,0.43484 0.301006,0.604128 0.167243,0.15335 0.383863,0.256979 0.616696,0.219575 0.05573,-0.0089 0.108083,-0.03261 0.162124,-0.04891 0.04417,-0.02786 0.0915,-0.05125 0.1325,-0.08359 0.137568,-0.108497 0.217456,-0.279849 0.230246,-0.452368 0.0026,-0.03423 -5.29e-4,-0.06864 -5.29e-4,-0.102958 -0.04733,-0.700002 -1.037283,-0.633073 -0.989957,0.06693 v 0 c 0.0087,-0.159859 0.08499,-0.269118 0.232616,-0.336275 0.03493,-0.008 0.0691,-0.02066 0.104778,-0.02397 0.06727,-0.0062 0.174358,0.0079 0.213741,0.07355 -0.06367,-0.05045 -0.0044,-0.003 -0.01521,0.07005 -0.01146,0.05326 -0.01794,0.08204 -0.0477,0.137517 -0.01569,0.02922 -0.101394,0.130535 -0.0078,0.02119 0.423203,-0.564272 -0.374796,-1.16277 -0.797997,-0.598501 z" /><path
       style="opacity:1;fill:#ffffff;stroke-width:0.264583"
       id="path45"
       d="m 36.722068,42.052562 c -0.0033,0.150387 -0.02339,0.299879 -0.03993,0.449239 -0.03418,0.290518 -0.06409,0.581565 -0.082,0.873554 -5.29e-4,0.232981 -0.0052,0.472334 0.04855,0.701016 0.04552,0.193558 0.08273,0.265827 0.15635,0.447553 0.122944,0.269266 0.278474,0.522862 0.465341,0.752512 0.102434,0.125886 0.160446,0.182803 0.27068,0.299014 0.153193,0.155434 0.309274,0.310745 0.49962,0.420904 0.0356,0.02061 0.07348,0.03698 0.110226,0.05547 0.633645,0.278625 1.027678,-0.617485 0.394033,-0.896109 v 0 c -0.127032,-0.004 -0.230613,-0.171956 -0.32222,-0.238784 -0.218866,-0.221277 -0.417595,-0.460523 -0.544232,-0.748218 -0.0307,-0.07504 -0.06995,-0.160491 -0.0887,-0.240975 -0.03777,-0.162168 -0.03471,-0.331491 -0.03532,-0.496686 0.01479,-0.270169 0.04514,-0.539258 0.08478,-0.806892 0.02249,-0.154109 0.04534,-0.308282 0.0722,-0.461666 0.07773,-0.699598 -0.911645,-0.809527 -0.98938,-0.109932 z" /><path
       style="opacity:1;fill:#ffffff;stroke-width:0.264583"
       id="path46"
       d="m 36.15046,43.83519 c 0.166957,0.02199 0.333901,0.04416 0.500533,0.0685 0.348239,0.05742 0.695674,0.11993 1.043202,0.181581 0.328689,0.05918 0.65768,0.116766 0.984874,0.183843 0.668494,0.118869 0.836602,-0.826524 0.168109,-0.945393 v 0 c -0.330211,-0.04979 -0.659011,-0.108564 -0.987809,-0.166833 -0.348882,-0.06225 -0.697968,-0.1241 -1.044144,-0.200271 -0.149725,-0.02965 -0.301392,-0.05372 -0.448836,-0.09311 -0.687084,-0.152686 -0.903013,0.818999 -0.215929,0.971685 z" /><path
       style="opacity:1;fill:#ffffff;stroke-width:0.264583"
       id="path47"
       d="m 35.537327,48.835915 c 0.01222,0.0011 0.04893,0.0026 0.03667,0.0031 -0.08082,0.0031 -0.164735,-0.01109 -0.245483,-0.01373 -0.145936,-0.0048 -0.137628,-0.0024 -0.28752,0.0039 -0.381696,0.0282 -0.707305,0.168812 -1.04241,0.342623 -0.299773,0.166235 -0.553824,0.390323 -0.7423,0.677875 -0.116276,0.177398 -0.147026,0.267012 -0.23169,0.457875 -0.111834,0.312716 -0.185251,0.647015 -0.13915,0.980781 0.03469,0.25119 0.06942,0.28634 0.170937,0.517303 0.173842,0.292722 0.420328,0.523266 0.703972,0.707694 0.127614,0.08297 0.24352,0.142219 0.376629,0.214016 0.199821,0.109668 0.409048,0.197141 0.624041,0.271566 0.645303,0.212074 0.945224,-0.700521 0.299918,-0.912598 v 0 c -0.16623,-0.05033 -0.327596,-0.11258 -0.481965,-0.193037 -0.248698,-0.128879 -0.497805,-0.2662 -0.670914,-0.493679 -0.01632,-0.02764 -0.03554,-0.05377 -0.04897,-0.08293 -0.09348,-0.202848 -0.0336,-0.436758 0.02765,-0.638749 0.130079,-0.319056 0.235373,-0.492242 0.544615,-0.665888 0.204616,-0.104328 0.418801,-0.197233 0.650018,-0.219173 0.08696,-0.0037 0.168704,-0.0019 0.255135,0.0099 0.02064,0.0028 0.04111,0.0068 0.06167,0.01016 0.01685,0.0034 0.03355,0.0078 0.05057,0.01021 0.0294,0.0042 0.05905,0.0065 0.08858,0.0097 0.704985,0 0.704985,-0.996995 0,-0.996995 z" /><path
       style="opacity:1;fill:#ffffff;stroke-width:0.264583"
       id="path48"
       d="m 39.332283,49.427788 c -0.04926,-0.02846 0.105733,0.02233 0.08093,0.01111 -0.01514,-0.0069 -0.03184,-0.0095 -0.04771,-0.01439 -0.120478,-0.037 -0.238384,-0.06189 -0.362971,-0.08131 -0.256643,-0.02188 -0.51844,-0.01873 -0.772769,0.02627 -0.05744,0.01016 -0.114051,0.02458 -0.171079,0.03688 -0.239472,0.06017 -0.46654,0.159832 -0.673545,0.294396 -0.119179,0.07747 -0.179575,0.129519 -0.289136,0.216628 -0.190058,0.164155 -0.355381,0.351607 -0.472271,0.57508 -0.07218,0.137996 -0.08816,0.201123 -0.138343,0.346141 -0.08743,0.301982 -0.09221,0.621662 0.02225,0.917493 0.02064,0.05331 0.04905,0.103259 0.07357,0.154887 0.128278,0.217741 0.304353,0.407799 0.519152,0.542808 0.04427,0.02782 0.09131,0.05098 0.13697,0.07646 0.250611,0.122224 0.523922,0.161107 0.800097,0.132249 0.05282,-0.0055 0.105029,-0.01579 0.157544,-0.02371 0.272491,-0.05506 0.537612,-0.163124 0.753181,-0.342519 0.0521,-0.04335 0.09851,-0.09312 0.147762,-0.139677 0.222306,-0.243861 0.368988,-0.537561 0.478711,-0.845687 0.08133,-0.241464 0.10237,-0.493001 0.09288,-0.745789 -0.0061,-0.09083 -0.01709,-0.181197 -0.02771,-0.271569 -0.08331,-0.685635 -1.052949,-0.567814 -0.969637,0.117822 v 0 c 0.0084,0.0665 0.01733,0.132951 0.02373,0.199678 0.0084,0.13031 0.007,0.260946 -0.03308,0.386787 -0.05435,0.169762 -0.126365,0.334566 -0.238276,0.475057 -0.101148,0.113678 -0.23386,0.182668 -0.382373,0.213709 -0.117578,0.02222 -0.232797,0.03741 -0.346253,-0.01072 -0.09943,-0.04593 -0.18547,-0.116848 -0.251139,-0.204737 -0.0024,-0.0035 -0.03911,-0.05844 -0.04257,-0.06689 -0.0342,-0.08359 -0.02558,-0.179372 -0.0053,-0.264472 0.02522,-0.08318 0.04972,-0.170397 0.096,-0.245132 0.05479,-0.08847 0.130704,-0.16152 0.204787,-0.23337 0.170463,-0.140131 0.34912,-0.267404 0.567989,-0.319008 0.192736,-0.04337 0.389808,-0.06215 0.587192,-0.0428 0.02875,0.0047 0.08528,0.01257 0.116176,0.02209 0.120928,0.03731 0.234403,0.105323 0.365239,0.103201 0.704982,0 0.704982,-0.996998 0,-0.996998 z" /><path
       style="opacity:1;fill:#ffffff;stroke-width:0.264583"
       id="path49"
       d="m 42.396558,47.30283 c 0.01283,0.301847 0.01048,0.6039 0.0047,0.905888 -0.01429,0.469556 -0.049,0.938149 -0.101558,1.404895 -0.04707,0.42459 -0.120973,0.84551 -0.198207,1.265457 -0.05798,0.296767 -0.118367,0.593042 -0.175784,0.889918 -0.0062,0.03315 -0.01249,0.06629 -0.01876,0.09944 -0.104664,0.678836 0.855356,0.826855 0.960022,0.148019 v 0 c 0.0034,-0.02912 0.0067,-0.05824 0.01005,-0.08736 0.04201,-0.29803 0.10455,-0.592582 0.151853,-0.889784 0.07132,-0.440634 0.145272,-0.881157 0.194061,-1.325001 0.05177,-0.489392 0.08563,-0.980303 0.109818,-1.471822 0.01521,-0.289618 0.0195,-0.580863 0.05425,-0.868907 0.05002,-0.700355 -0.940427,-0.771102 -0.990452,-0.07074 z" /><path
       style="opacity:1;fill:#ffffff;stroke-width:0.264583"
       id="path50"
       d="m 42.53454,49.36178 c -0.10523,-0.0087 -0.210544,-0.01622 -0.315711,-0.02564 -0.253653,-0.02622 -0.50787,-0.01678 -0.76009,0.01669 -0.325194,0.04738 -0.606919,0.213146 -0.873961,0.394488 -0.255971,0.196012 -0.436964,0.462426 -0.581223,0.746684 -0.109612,0.263707 -0.119848,0.51195 0.008,0.774155 0.07216,0.147926 0.121113,0.180141 0.234614,0.299005 0.273161,0.223769 0.615283,0.273675 0.955591,0.29809 0.188481,0.0081 0.377224,1.4e-5 0.565314,-0.01246 0.686157,-0.0524 0.612047,-1.022782 -0.07411,-0.970376 v 0 c -0.143079,0.01281 -0.286864,0.02222 -0.430585,0.01892 -0.117563,-0.0058 -0.233588,-0.0208 -0.349221,-0.03911 -0.0016,0.003 -0.0034,0.006 -0.005,0.009 -0.0033,-5e-6 -0.0082,-0.0028 -0.01,-1.3e-5 -0.0082,0.01257 -0.02013,0.132945 -0.02421,0.04579 0.06193,-0.140036 0.14545,-0.273045 0.259255,-0.376854 0.140131,-0.09941 0.284459,-0.20374 0.457986,-0.231643 0.172072,-0.02567 0.345948,-0.02529 0.518747,-0.0042 0.09473,0.01294 0.189762,0.02635 0.283647,0.04392 0.697521,0.09965 0.838443,-0.886801 0.140919,-0.986446 z" /><path
       style="opacity:1;fill:#ffffff;stroke-width:0.264583"
       id="path51"
       d="m 44.334257,51.328428 c 0.15022,0.0031 0.29981,0.02087 0.449271,0.03526 0.179607,0.01267 0.361942,0.0073 0.536694,-0.04022 0.118443,-0.03219 0.157128,-0.05577 0.265343,-0.106564 0.138334,-0.07592 0.267644,-0.170468 0.373668,-0.288123 0.02744,-0.03045 0.05632,-0.06028 0.07794,-0.09511 0.03517,-0.05665 0.06103,-0.118581 0.09154,-0.177869 0.01378,-0.05221 0.03323,-0.103245 0.04137,-0.156628 0.03096,-0.203263 -0.0048,-0.430355 -0.09313,-0.616238 -0.02588,-0.05449 -0.05911,-0.105172 -0.08868,-0.157755 -0.151235,-0.213776 -0.36595,-0.366183 -0.612277,-0.452271 -0.04476,-0.01564 -0.09105,-0.02646 -0.136581,-0.03969 -0.243845,-0.05326 -0.498448,-0.06526 -0.738343,0.0149 -0.05315,0.01775 -0.103066,0.04401 -0.154599,0.06602 -0.296773,0.156364 -0.44037,0.34984 -0.588624,0.642081 -0.139536,0.268282 -0.149524,0.522377 -0.123698,0.816335 0.03131,0.197326 0.09415,0.390453 0.194461,0.563999 0.06757,0.116903 0.102116,0.154559 0.18315,0.259246 0.219773,0.280649 0.533791,0.438989 0.848841,0.587685 0.293032,0.126616 0.587807,0.249153 0.882785,0.371152 0.248568,0.104696 0.499417,0.203801 0.748906,0.306231 0.634688,0.250376 0.988772,-0.647207 0.354084,-0.897583 v 0 c -0.248081,-0.09402 -0.495324,-0.190068 -0.740251,-0.292076 -0.279996,-0.114133 -0.560449,-0.227343 -0.837581,-0.348297 -0.179843,-0.08571 -0.367395,-0.167336 -0.497922,-0.323787 -0.07882,-0.09717 -0.146423,-0.200149 -0.172289,-0.324977 -0.0078,-0.05458 -0.0071,-0.106667 -0.0079,-0.161555 -9.6e-5,-0.006 -0.0028,-0.01201 -0.0016,-0.01791 0.0066,-0.0349 0.02742,-0.07751 0.04052,-0.108333 0.03429,-0.07336 0.05932,-0.145733 0.129061,-0.192315 0.0087,-0.0076 0.01431,-0.02003 0.02527,-0.02376 0.06272,-0.02138 0.13398,-0.0083 0.197493,-7.94e-4 0.06336,0.01479 0.127011,0.03453 0.181417,0.06895 0.02053,-0.0056 0.02856,0.04248 0.03581,0.05916 0.01434,0.03301 0.0091,-0.0043 0.0263,-0.01564 0.09933,-0.123593 -0.03375,0.05441 -0.07329,0.06319 -0.0232,0.01426 -0.05331,0.03798 -0.08089,0.04355 -0.06186,0.01249 -0.127132,0.01183 -0.189714,0.0093 -0.155075,-0.01633 -0.310219,-0.03328 -0.463905,-0.06005 -0.700418,-0.05837 -0.782963,0.932172 -0.08254,0.990542 z" /><path
       style="opacity:1;fill:#ffffff;stroke-width:0.264583"
       id="path53"
       d="m 53.612832,24.525596 c 0.07727,0.35442 0.126312,0.713869 0.17544,1.073014 0.11693,0.926017 0.162515,1.858983 0.212,2.790435 0.07831,1.342673 0.127731,2.686693 0.168434,4.030948 0.03513,1.207196 0.06387,2.41467 0.07458,3.622347 0.0079,0.80023 0.0041,1.600359 -0.01032,2.40047 -0.0079,0.671113 0.941165,0.682328 0.949095,0.01122 v 0 c 0.0046,-0.80871 0.0026,-1.617385 -0.01646,-2.425938 -0.02661,-1.212456 -0.06641,-2.424592 -0.100308,-3.636859 -0.0457,-1.348957 -0.09191,-2.697928 -0.15475,-4.046218 -0.0417,-0.955408 -0.0749,-1.912092 -0.175789,-2.863628 -0.03961,-0.355788 -0.07862,-0.711746 -0.132546,-1.065717 -0.07773,-0.699597 -1.067115,-0.589666 -0.98938,0.109931 z" /><path
       style="opacity:1;fill:#ffffff;stroke-width:0.264583"
       id="path56"
       d="m 36.8237,29.411078 c 0.01376,0.258926 0.02148,0.518215 0.02895,0.777406 0.0092,0.438275 0.02429,0.876422 0.03116,1.314741 0.0024,0.264068 0.0016,0.13348 0.0021,0.391761 0.0055,0.677788 0.964023,0.670033 0.958538,-0.0078 v 0 c -0.0036,-0.264073 -0.0016,-0.130114 -0.0057,-0.401876 -0.0094,-0.43838 -0.03035,-0.87652 -0.02862,-1.31513 -0.0024,-0.253016 -0.0073,-0.5065 0.01,-0.759145 0,-0.70463 -0.996497,-0.70463 -0.996497,0 z" /><path
       style="opacity:1;fill:#ffffff;stroke-width:0.264583"
       id="path57"
       d="m 39.728457,28.325519 c 0.01757,0.266284 0.0186,0.533363 0.01897,0.800118 -0.0084,0.504024 -0.02315,1.007901 -0.03565,1.511835 -0.01251,0.526407 -0.03023,1.052605 -0.03885,1.579104 -0.0024,0.578192 0.01479,1.156558 0.02942,1.734593 0.0081,0.250264 0.01484,0.500525 0.01921,0.750877 0.01831,0.671779 0.968335,0.645903 0.950039,-0.02588 v 0 c -0.0092,-0.251225 -0.02029,-0.502357 -0.03012,-0.753558 -0.02011,-0.564025 -0.03201,-1.128522 -0.02373,-1.692918 0.0059,-0.523274 0.02524,-1.046122 0.03762,-1.569262 0.01214,-0.508217 0.02777,-1.016296 0.04647,-1.524309 0.0061,-0.270214 0.0063,-0.540798 0.02363,-0.810607 0,-0.704982 -0.996998,-0.704982 -0.996998,0 z" /><path
       style="opacity:1;fill:#ffffff;stroke-width:0.264583"
       id="path58"
       d="m 42.387776,28.084004 c 0.0096,0.33682 0.0061,0.67396 0.007,1.010905 -7.94e-4,0.627422 -0.01548,1.254736 -0.02572,1.882055 -0.01079,0.575119 -0.01876,1.150305 -0.03222,1.725369 -0.01172,0.462407 -0.02765,0.924697 -0.03755,1.387144 -0.0056,0.243811 -0.01061,0.487611 -0.02215,0.731219 -0.0227,0.682759 0.942869,0.714859 0.965568,0.0321 v 0 c 0.005,-0.247748 0.0056,-0.495544 0.01032,-0.743302 0.0095,-0.462703 0.01754,-0.925439 0.02802,-1.388123 0.0098,-0.576255 0.0082,-1.152647 0.01879,-1.728904 0.01069,-0.628711 0.0241,-1.257364 0.03653,-1.886043 0.0093,-0.340987 0.01339,-0.682768 0.04739,-1.022419 0,-0.704275 -0.995997,-0.704275 -0.995997,0 z" /><path
       style="opacity:1;fill:#ffffff;stroke-width:0.264583"
       id="path59"
       d="m 44.998359,27.748685 c 0.02872,0.330803 0.04412,0.662471 0.05724,0.99419 0.02066,0.597667 0.01061,1.19575 0.0049,1.793573 -0.0057,0.63794 -0.02088,1.275702 -0.0258,1.913652 -0.0034,0.563412 -0.0078,1.126816 -0.01077,1.69023 -0.003,0.440717 0.0043,0.881441 0.0097,1.322118 0.0013,0.275661 0.01304,0.551114 0.0217,0.826606 0.02875,0.685048 0.997556,0.64439 0.968803,-0.04066 v 0 c -0.01413,-0.267626 -0.0266,-0.535416 -0.03181,-0.803381 -0.01048,-0.434522 -0.0231,-0.869071 -0.0223,-1.303763 -0.0019,-0.561584 -0.0053,-1.123175 -0.0033,-1.684764 0.0038,-0.637032 0.01913,-1.27382 0.02683,-1.910802 0.0063,-0.609928 0.01408,-1.219893 0.0084,-1.829858 -0.0057,-0.322279 -0.01598,-0.644853 -0.0096,-0.967142 0,-0.702861 -0.993997,-0.702861 -0.993997,0 z" /><path
       style="opacity:1;fill:#ffffff;stroke-width:0.264583"
       id="path60"
       d="m 47.906334,27.65272 c -0.01394,0.243137 -0.0098,0.487257 -0.01003,0.730758 -0.0021,0.502664 0.01447,1.005303 0.03177,1.507623 0.01879,0.645975 0.05564,1.291243 0.0872,1.936681 0.03184,0.700302 0.06397,1.40059 0.09139,2.101085 0.02604,0.592172 0.05364,1.184259 0.08304,1.776272 0.0259,0.524386 0.05197,1.048758 0.07623,1.573223 0.01114,0.26302 0.0045,0.136361 0.01937,0.380006 0.06276,0.680402 1.025001,0.591642 0.962237,-0.08876 v 0 c -0.0271,-0.205182 -0.01521,-0.09135 -0.0312,-0.341931 -0.03159,-0.523053 -0.06796,-1.04588 -0.08933,-1.569488 -0.02982,-0.590063 -0.05852,-1.180179 -0.09142,-1.770083 -0.03405,-0.700723 -0.06915,-1.401392 -0.09728,-2.102387 -0.02704,-0.64012 -0.05393,-1.280322 -0.07289,-1.920732 -0.01032,-0.488228 -0.02254,-0.976821 -0.0074,-1.46508 0.0065,-0.1938 0.0094,-0.392197 0.03175,-0.583285 0.115895,-0.695362 -0.867497,-0.859261 -0.98339,-0.163899 z" /><path
       style="opacity:1;fill:#ffffff;stroke-width:0.264583"
       id="path61"
       d="m 50.610174,27.047682 c 0.04518,0.380166 0.06976,0.762331 0.0955,1.144227 0.04887,0.696841 0.0807,1.394614 0.1147,2.092286 0.03973,0.774345 0.08082,1.548619 0.115892,2.323197 0.03245,0.641268 0.06161,1.282698 0.08684,1.924291 0.01945,0.484595 0.03474,0.969375 0.06179,1.453629 0.01524,0.256887 0.0077,0.1309 0.02262,0.37796 0.04637,0.678101 1.00535,0.612529 0.958982,-0.06557 v 0 c -0.01857,-0.243327 -0.0093,-0.119674 -0.02781,-0.370965 -0.03222,-0.479113 -0.05767,-0.958622 -0.07628,-1.43846 -0.03406,-0.641914 -0.07136,-1.283642 -0.106469,-1.925495 -0.04,-0.77334 -0.0849,-1.546434 -0.118123,-2.320107 -0.02932,-0.701783 -0.06029,-1.403493 -0.09527,-2.10502 -0.01757,-0.362894 -0.03889,-0.726667 -0.03589,-1.089969 0,-0.704629 -0.996495,-0.704629 -0.996495,0 z" /><path
       style="opacity:1;fill:#ffffff;stroke-width:0.264583"
       id="path62"
       d="m 56.878182,26.921102 c 0.01659,0.21141 0.03808,0.42235 0.0548,0.633786 0.04704,0.582083 0.06891,1.165561 0.09006,1.74902 0.02334,0.697423 0.03083,1.395148 0.0265,2.092907 0.0021,0.591307 -0.0329,1.181442 -0.07384,1.771015 -0.03225,0.425059 -0.07217,0.849591 -0.122841,1.272852 -0.02384,0.156285 -0.0094,0.08804 -0.03847,0.205714 -0.09895,0.680545 0.863484,0.820486 0.962438,0.139941 v 0 c 0.01106,-0.152919 0.0047,-0.06963 0.01963,-0.249825 0.03679,-0.437301 0.06899,-0.875022 0.09293,-1.31323 0.03168,-0.609045 0.07155,-1.218208 0.06338,-1.828443 -0.0073,-0.705091 -0.02363,-1.410039 -0.03751,-2.115021 -0.01058,-0.592378 -0.02495,-1.184733 -0.0407,-1.776981 -0.0062,-0.193665 -0.01733,-0.388385 0.0011,-0.581735 0,-0.705336 -0.997498,-0.705336 -0.997498,0 z" /><path
       style="opacity:1;fill:#ffffff;stroke-width:0.264583"
       id="path63"
       d="m 59.0746,27.532795 c 0.0432,0.34249 0.07709,0.685959 0.108751,1.029692 0.04846,0.541523 0.07648,1.084525 0.100481,1.627585 0.01932,0.514649 0.03827,1.029319 0.05615,1.544021 0.01471,0.462388 0.01442,0.924994 0.01548,1.387546 7.93e-4,0.325417 -0.0016,0.650775 -0.0052,0.976159 0.0099,0.675397 0.965087,0.661355 0.955157,-0.01405 v 0 c -0.01307,-0.320604 -0.02331,-0.64131 -0.01934,-0.962258 0.0011,-0.473837 -0.0051,-0.94761 -0.02299,-1.421148 -0.01984,-0.51775 -0.03883,-1.035548 -0.06315,-1.553112 -0.02722,-0.552366 -0.05676,-1.104633 -0.09436,-1.656403 -0.02016,-0.318633 -0.0463,-0.638755 -0.03953,-0.958041 0,-0.70109 -0.991492,-0.70109 -0.991492,0 z" /><path
       style="opacity:1;fill:#ffffff;stroke-width:0.264583"
       id="path64"
       d="m 61.788005,29.049839 c 0.02886,0.29758 0.0294,0.597083 0.02996,0.895784 -0.0011,0.506677 -0.0047,1.013288 -0.01749,1.519812 -0.0114,0.424704 -0.02005,0.849476 -0.03057,1.274204 -0.0084,0.307787 -0.01651,0.615548 -0.01378,0.923467 -0.0048,0.131004 0.01191,0.258771 0.03216,0.387668 0.143168,0.674537 1.097108,0.472067 0.953939,-0.20247 v 0 c -0.04023,-0.04789 -0.0079,-0.152691 -0.02386,-0.206949 -0.01133,-0.295558 -0.0077,-0.591312 -0.006,-0.887021 0.0027,-0.424127 0.009,-0.848222 0.01431,-1.272326 0.0054,-0.509018 0.0095,-1.018053 0.01924,-1.527013 0.0066,-0.301802 0.01111,-0.604364 0.03806,-0.905156 0,-0.704275 -0.995995,-0.704275 -0.995995,0 z" /><path
       style="opacity:1;fill:#ffffff;stroke-width:0.264583"
       id="path65"
       d="m 64.302716,30.138153 c 0.04256,0.196799 0.03741,0.402992 0.04273,0.603496 0.009,0.408003 0.005,0.816104 0.0086,1.224145 0.0026,0.347239 0.01426,0.694322 0.02241,1.041458 0.0083,0.206269 0.0073,0.41229 0.0013,0.618495 0.0227,0.695674 1.006523,0.663586 0.983832,-0.03209 v 0 c -0.02683,-0.20428 -0.01315,-0.412975 -0.03152,-0.618022 -0.01458,-0.340133 -0.0301,-0.680305 -0.03601,-1.02072 -0.0058,-0.407472 -0.0073,-0.814962 -0.0062,-1.222473 0.0016,-0.252645 0.01199,-0.505833 -0.0019,-0.75819 -0.115895,-0.695362 -1.099285,-0.531463 -0.983393,0.163899 z" /><path
       style="opacity:1;fill:#ffffff;stroke-width:0.264583"
       id="path66"
       d="m 66.562265,30.074663 c 0.03868,0.211818 0.04607,0.427813 0.05402,0.642496 0.01,0.326967 0.01511,0.654 0.01402,0.981109 -0.004,0.293381 0.0019,0.586804 -0.0026,0.880171 2.64e-4,0.08036 -0.0091,0.159988 -0.01971,0.239432 -0.05892,0.688332 0.91453,0.771663 0.97345,0.08333 v 0 c 0.0057,-0.107339 0.01032,-0.214746 0.009,-0.322284 -0.0038,-0.292809 -0.01439,-0.585562 -0.01085,-0.878445 5.29e-4,-0.337273 -0.0034,-0.674505 -0.01225,-1.011672 -0.0054,-0.234709 -0.01281,-0.469405 -0.01468,-0.70417 -0.06366,-0.70031 -1.054052,-0.610274 -0.990388,0.09004 z" /><path
       style="opacity:1;fill:#ffffff;stroke-width:0.264583"
       id="path67"
       d="m 69.168266,29.671576 c 0.01288,0.179067 0.01005,0.359283 0.0098,0.538771 -0.003,0.368702 -0.0016,0.73742 -7.93e-4,1.10613 5.29e-4,0.168304 -7.94e-4,0.336603 -0.0019,0.504902 0.0069,0.674724 0.961059,0.665035 0.954206,-0.0097 v 0 c -0.0046,-0.166656 -0.0092,-0.333319 -0.01082,-0.500039 -0.0031,-0.361852 0.0035,-0.72354 0.01344,-1.085262 0.006,-0.18524 0.01336,-0.370464 0.03361,-0.55481 0,-0.70534 -0.997497,-0.70534 -0.997497,0 z" /><path
       style="opacity:1;fill:#ffffff;stroke-width:0.264583"
       id="path68"
       d="m 63.262872,53.378197 c -0.181269,-0.299879 -0.470059,-0.513982 -0.73033,-0.741272 -0.380172,-0.329065 -0.719251,-0.704276 -0.998603,-1.122903 -0.07096,-0.106344 -0.135052,-0.217117 -0.202576,-0.325675 -0.297444,-0.506651 -0.486399,-1.066012 -0.595741,-1.641748 -0.07169,-0.377483 -0.08074,-0.550492 -0.11883,-0.930431 -0.02831,-0.557712 -0.0619,-1.182521 0.247097,-1.679093 0.03623,-0.05824 0.0868,-0.10622 0.130202,-0.15933 0.04828,-0.04057 0.09288,-0.08598 0.144851,-0.121695 0.244531,-0.168023 0.544584,-0.152564 0.825122,-0.124182 0.386702,0.0511 0.651706,0.244951 0.936588,0.49548 0.262136,0.214326 0.476906,0.58773 0.795276,0.717891 0.09336,0.03817 0.196689,0.04482 0.295035,0.06723 0.111828,-0.02172 0.228047,-0.02731 0.335486,-0.06519 0.337995,-0.119163 0.650497,-0.538882 0.876247,-0.806945 0.244134,-0.274986 0.473123,-0.575595 0.772038,-0.795176 0.05536,-0.04067 0.114957,-0.07523 0.172435,-0.112839 0.130352,-0.05071 0.202922,-0.08717 0.344678,-0.107212 0.178493,-0.02524 0.387016,2.65e-4 0.557876,0.05427 0.05593,0.01765 0.107747,0.04634 0.161621,0.06951 0.194421,0.111821 0.405334,0.238982 0.523798,0.43807 0.0328,0.05512 0.04426,0.13719 0.05682,0.197829 -0.0088,0.317903 -0.16741,0.60044 -0.319924,0.870532 -0.283734,0.467151 -0.636574,0.886542 -0.98466,1.306116 -0.330179,0.394846 -0.671187,0.780418 -0.998974,1.177264 -0.302903,0.35833 -0.586203,0.732266 -0.864431,1.109861 -0.233902,0.317732 -0.47199,0.632293 -0.703686,0.951661 -0.198506,0.285586 -0.394631,0.572828 -0.592592,0.858811 -0.131303,0.192003 -0.280774,0.370345 -0.428226,0.549891 -0.107426,0.142976 -0.04974,0.05357 -0.153913,0.279649 -0.193921,0.673074 0.757946,0.947317 0.951867,0.274243 v 0 c -0.07328,0.121153 -0.08627,0.139859 -0.0337,0.05944 0.158221,-0.202129 0.320374,-0.401569 0.462161,-0.615924 0.190902,-0.281112 0.379799,-0.563613 0.574503,-0.842113 0.229558,-0.318643 0.462825,-0.634558 0.693211,-0.952595 0.26492,-0.364866 0.540983,-0.721286 0.828826,-1.068412 0.326131,-0.397211 0.66239,-0.7859 0.98937,-1.182412 0.382495,-0.463524 0.76995,-0.926044 1.085368,-1.439336 0.228259,-0.403894 0.459613,-0.839827 0.447167,-1.318787 -0.0026,-0.0988 -0.02217,-0.196421 -0.03325,-0.294632 -0.08435,-0.250227 -0.08601,-0.313086 -0.243575,-0.535794 -0.226907,-0.320717 -0.572725,-0.536046 -0.917091,-0.707866 -0.105741,-0.03802 -0.208801,-0.08453 -0.31722,-0.114052 -0.423799,-0.115408 -0.892447,-0.102721 -1.304171,0.05156 -0.106756,0.04 -0.206928,0.09577 -0.31039,0.143653 -0.08291,0.05669 -0.168638,0.109474 -0.24873,0.170084 -0.33977,0.257125 -0.616508,0.586563 -0.895159,0.905656 -0.118235,0.137599 -0.234916,0.276675 -0.362503,0.405844 -0.0341,0.03452 -0.100169,0.08994 -0.09136,0.09729 0.02066,0.01725 0.05215,0.01333 0.07822,0.02 0.01484,0.01307 0.03538,0.0217 0.04454,0.03925 0.0037,0.0072 -0.0069,0.02466 -0.01355,0.02008 -0.04375,-0.02997 -0.07833,-0.07155 -0.116015,-0.10885 -0.163854,-0.162182 -0.316537,-0.335828 -0.490185,-0.488106 -0.06797,-0.0581 -0.133607,-0.119036 -0.203909,-0.174289 -0.378984,-0.297863 -0.79647,-0.494694 -1.278785,-0.548349 -0.243906,-0.0168 -0.356039,-0.03591 -0.603271,-0.0052 -0.347808,0.04326 -0.672745,0.16646 -0.945409,0.390575 -0.0943,0.07752 -0.172778,0.172495 -0.25917,0.258741 -0.0735,0.108749 -0.157808,0.210929 -0.220509,0.326245 -0.356843,0.656278 -0.345361,1.434819 -0.291134,2.156275 0.04628,0.417906 0.05995,0.61609 0.140462,1.033039 0.129908,0.672785 0.345554,1.328806 0.689808,1.923722 0.07691,0.126341 0.149932,0.255135 0.230738,0.379023 0.31296,0.479806 0.69029,0.914913 1.114512,1.299268 0.16232,0.149339 0.350378,0.294156 0.475052,0.477618 0.31487,0.629738 1.205455,0.184447 0.890585,-0.445291 z" /><path
       style="opacity:1;fill:#ffffff;stroke-width:0.264583"
       id="path69"
       d="m 71.405572,50.916493 c -0.126198,-0.183079 -0.166251,-0.418285 -0.217371,-0.63059 -0.114819,-0.548375 -0.159189,-1.109141 -0.183587,-1.667975 -0.0057,-0.232797 -0.01193,-0.468477 0.03106,-0.698699 0.01373,-0.07358 0.047,-0.195606 0.08723,-0.264652 0.0097,-0.01667 0.02757,-0.02701 0.04136,-0.04051 0.0113,-0.005 0.02933,-0.0266 0.03386,-0.01511 0.0048,0.01209 -0.05399,0.06765 -0.03086,0.08055 0.01381,0.0077 0.0302,0.0094 0.04506,0.01487 0.01849,0.0067 0.03665,0.01445 0.05498,0.02164 0.110448,0.05465 0.228534,0.118118 0.315095,0.207518 0.12763,0.139001 0.237599,0.291634 0.369411,0.426794 0.0902,0.04492 0.170688,0.121676 0.270603,0.134752 0.278448,0.03644 0.39664,-0.04664 0.570061,-0.222972 0.08879,-0.09028 0.139544,-0.230606 0.193167,-0.343096 0.07284,-0.179716 0.170661,-0.340982 0.289628,-0.493115 0.07593,-0.08682 0.160502,-0.178175 0.28366,-0.173661 0.09606,0.029 0.118695,0.06279 0.173747,0.139692 0.118475,0.167661 0.172048,0.361008 0.189272,0.562853 0.0042,0.250542 -0.07058,0.489651 -0.150505,0.723974 -0.07125,0.213937 -0.198747,0.398473 -0.327483,0.580771 -0.11466,0.163457 -0.251537,0.308433 -0.389491,0.451953 -0.133154,0.138981 -0.271584,0.272749 -0.406953,0.409546 -0.111347,0.11166 -0.219524,0.22683 -0.340076,0.328721 -0.133938,0.10169 -0.272082,0.197866 -0.411033,0.292558 -0.113938,0.07441 -0.231908,0.141753 -0.355098,0.199501 -0.09577,0.04448 -0.197183,0.07426 -0.297137,0.107482 -0.01707,0.0061 -0.03412,0.01225 -0.05117,0.01839 -0.65509,0.250169 -0.301297,1.17661 0.353795,0.926439 v 0 c 0.0081,-0.0035 0.01617,-0.0069 0.02426,-0.01043 0.132996,-0.04959 0.269479,-0.09054 0.396947,-0.154077 0.16773,-0.08192 0.32961,-0.174623 0.484759,-0.278593 0.165134,-0.114536 0.330655,-0.228865 0.48973,-0.351745 0.142764,-0.121121 0.273212,-0.254844 0.403024,-0.389626 0.13919,-0.141568 0.281961,-0.279632 0.418471,-0.423793 0.169852,-0.180676 0.338754,-0.363107 0.478546,-0.568825 0.180033,-0.260514 0.352081,-0.528154 0.44922,-0.83253 0.119362,-0.366964 0.217131,-0.74253 0.192008,-1.132502 -0.0082,-0.06964 -0.01275,-0.139808 -0.02463,-0.208917 -0.05527,-0.321877 -0.193128,-0.623306 -0.387977,-0.884029 -0.04662,-0.0518 -0.08881,-0.107958 -0.139848,-0.155408 -0.259067,-0.240856 -0.593305,-0.341638 -0.942597,-0.312468 -0.06542,0.01397 -0.13213,0.02289 -0.196255,0.04193 -0.280458,0.08331 -0.504857,0.274482 -0.687922,0.495859 -0.158639,0.206182 -0.299233,0.422595 -0.40074,0.663159 -0.01283,0.02601 -0.02556,0.05205 -0.03849,0.078 -0.05268,0.105775 0.01754,-0.0164 0.109128,-0.037 0.272743,-0.06133 0.254851,-0.02524 0.45453,0.101251 -0.03812,-0.01595 -0.0123,-0.0028 -0.0665,-0.06728 -0.106201,-0.126375 -0.206587,-0.258021 -0.3253,-0.373364 -0.196877,-0.170619 -0.414859,-0.316508 -0.662009,-0.404802 -0.389175,-0.120906 -0.726495,-0.152405 -1.067829,0.127199 -0.06317,0.05175 -0.108254,0.122293 -0.16238,0.183438 -0.04233,0.07586 -0.09176,0.148175 -0.126982,0.227584 -0.184642,0.416256 -0.160713,0.89281 -0.151923,1.335841 0.03195,0.614072 0.08313,1.229228 0.192833,1.834791 0.0723,0.332443 0.143013,0.674645 0.317529,0.971449 0.390872,0.586311 1.220042,0.03353 0.829168,-0.552778 z" /><path
       style="opacity:1;fill:#ffffff;stroke-width:0.264583"
       id="path70"
       d="m 66.114149,54.745564 c 0.128211,0.01328 0.13957,0.0036 0.277397,0.09449 0.03375,0.02225 0.05415,0.06011 0.08279,0.08865 0.0016,0.0016 0.0066,0.0024 0.0064,2.54e-4 -0.0051,-0.06555 -0.01775,-0.130324 -0.02421,-0.195752 -0.02156,-0.376579 -0.0045,-0.754097 0.02201,-1.129935 0.03633,-0.249907 0.03369,-0.644636 0.205301,-0.844566 0.01259,-0.0089 0.02405,-0.01969 0.0378,-0.02671 0.07544,-0.03853 -0.01617,0.04491 -0.01643,0.04523 -0.0021,0.0026 0.0011,0.0066 0.0016,0.0098 0.004,0.0045 0.008,0.0089 0.01199,0.01344 -0.0016,0.003 -0.0061,0.0061 -0.0044,0.0089 0.01849,0.03106 0.04777,0.05432 0.07007,0.08278 0.01765,0.02254 0.07319,0.09878 0.08802,0.119026 0.204218,0.264861 0.426373,0.330401 0.748358,0.269854 0.05086,-0.0096 0.195826,-0.0656 0.253301,-0.08709 0.182224,-0.05714 0.361326,-0.16823 0.557062,-0.16546 0.103193,0.01826 0.202565,0.09307 0.254476,0.184981 0.0086,0.01804 0.0245,0.03418 0.0258,0.05413 5.29e-4,0.008 -0.01479,-0.0075 -0.02278,-0.0076 -0.0037,-5.3e-5 -0.02643,0.01537 -0.02765,0.01725 -0.07362,0.112548 0.027,-0.01463 -0.04675,0.07497 -0.115025,0.121692 -0.255026,0.218204 -0.395589,0.308009 -0.186219,0.105889 -0.37579,0.205163 -0.559395,0.315616 -0.22025,0.13802 -0.434229,0.285369 -0.635463,0.449911 -0.178933,0.156284 -0.337992,0.333325 -0.495454,0.510715 -0.0789,0.0909 -0.169111,0.170505 -0.251925,0.257646 -0.470218,0.516744 0.260572,1.181732 0.730789,0.664988 v 0 c 0.07885,-0.09833 0.183214,-0.17489 0.259184,-0.276281 0.120361,-0.139652 0.241739,-0.279413 0.378182,-0.403767 0.162462,-0.135372 0.338095,-0.253185 0.516972,-0.365766 0.194225,-0.116056 0.397155,-0.216535 0.590073,-0.334914 0.268087,-0.176861 0.530244,-0.37201 0.709587,-0.643681 0.03205,-0.06084 0.06903,-0.119333 0.09615,-0.182526 0.123351,-0.287396 0.121566,-0.598006 -0.0096,-0.882348 -0.02792,-0.06054 -0.07134,-0.112652 -0.107003,-0.168979 -0.04845,-0.05548 -0.09271,-0.114893 -0.145336,-0.16642 -0.199242,-0.195091 -0.466317,-0.326771 -0.74168,-0.368631 -0.06494,-0.0099 -0.131244,-0.006 -0.196866,-0.0089 -0.06443,0.0066 -0.129339,0.0094 -0.193288,0.01966 -0.216443,0.03461 -0.418031,0.127873 -0.624031,0.197691 -0.0295,0.01037 -0.05921,0.02019 -0.08851,0.03112 -0.0098,0.0037 -0.03814,0.0084 -0.0286,0.01257 0.02344,0.01021 0.05181,7.94e-4 0.07627,0.0082 0.127762,0.03882 0.101457,0.04523 0.193794,0.134568 0.01243,0.01204 -0.02302,-0.02585 -0.03453,-0.03876 -0.181475,-0.237197 -0.373195,-0.469249 -0.66538,-0.572225 -0.163372,-0.04158 -0.22239,-0.07032 -0.397907,-0.05537 -0.313719,0.02673 -0.55658,0.211053 -0.736941,0.457623 -0.03872,0.06954 -0.08297,0.136269 -0.116147,0.208608 -0.153892,0.335497 -0.178498,0.715884 -0.218866,1.076815 -0.02869,0.42558 -0.04653,0.852522 -0.02825,1.279022 0.02096,0.264718 0.03379,0.591156 0.254479,0.781275 0.06591,0.05679 0.147785,0.09374 0.22861,0.125944 0.04268,0.01701 0.09096,0.01299 0.136446,0.0195 0.705408,0 0.705408,-0.997598 0,-0.997598 z" /></g><g
     id="layer2"
     style="opacity:1"
     transform="translate(-21.235645,-15.516385)"><path
       style="opacity:1;fill:#ffffff;stroke-width:0.264583"
       id="path14"
       d="m 50.064701,42.460216 c 0.15412,0.709332 0.180433,1.443218 0.226785,2.165763 0.09076,1.604306 0.159991,3.209436 0.274315,4.812345 0.158784,2.042623 0.397581,4.077605 0.629494,6.112841 0.191926,1.680419 0.358272,3.363523 0.487256,5.049924 0.08953,1.150223 0.104376,2.304029 0.109265,3.457118 0.0013,0.367696 -0.01701,0.73462 -0.04299,1.101195 -0.03563,1.388645 1.928217,1.439027 1.963843,0.05038 v 0 c -0.0057,-0.393639 -0.01974,-0.787141 -0.02508,-1.180804 -0.0316,-1.195194 -0.0545,-2.391873 -0.166735,-3.582969 -0.156882,-1.703258 -0.34716,-3.40297 -0.554088,-5.100873 -0.237741,-2.003568 -0.47148,-4.008294 -0.603938,-6.022231 -0.09095,-1.596726 -0.146468,-3.194736 -0.207703,-4.792816 -0.0339,-0.864809 -0.04918,-1.735381 -0.171919,-2.593105 -0.36998,-1.356595 -2.288497,-0.833363 -1.918517,0.523232 z" /><path
       style="opacity:1;fill:#ffffff;stroke-width:0.264583"
       id="path15"
       d="m 53.723968,66.343897 c 0.400968,-0.315725 0.878081,-0.534593 1.322676,-0.781794 1.556898,-0.83662 3.1057,-1.6878 4.679264,-2.492867 1.644486,-0.813728 3.305847,-1.593027 4.969084,-2.367555 1.500418,-0.699902 3.032043,-1.329385 4.573244,-1.933046 1.29562,-0.488629 2.588689,-0.983625 3.876529,-1.492398 1.000041,-0.405003 1.994059,-0.824108 3.001529,-1.210431 0.828736,-0.317045 1.669777,-0.599951 2.511044,-0.881452 0.562102,-0.184396 1.124077,-0.36917 1.687846,-0.548431 0.0604,-0.01841 0.120811,-0.03681 0.181218,-0.05522 1.31241,-0.448464 0.678188,-2.304492 -0.634222,-1.856029 v 0 c -0.05326,0.02043 -0.106513,0.04086 -0.159771,0.0613 -0.565629,0.195059 -1.132435,0.386712 -1.697212,0.584253 -0.85979,0.302107 -1.718977,0.606195 -2.569274,0.934376 -1.013158,0.394213 -2.017339,0.809662 -3.017213,1.23652 -1.279903,0.521303 -2.562945,1.034674 -3.855423,1.524214 -1.571213,0.629676 -3.134704,1.279721 -4.668052,1.997662 -1.676265,0.794234 -3.357293,1.579124 -5.016312,2.409058 -1.574861,0.805415 -3.125452,1.65835 -4.721178,2.422517 -0.579418,0.275296 -1.177697,0.529315 -1.709163,0.89259 -1.100778,0.880621 0.144608,2.437353 1.245386,1.556732 z" /><path
       id="path17"
       style="opacity:1;fill:#ffffff;stroke-width:0.264583"
       d="m 78.241736,28.402401 c -1.396738,0.02912 -1.355392,2.004196 0.04134,1.975073 0.04601,-0.02133 0.09182,-0.0043 0.141077,0.0052 0.315243,0.06796 0.627251,0.150196 0.941544,0.222208 0.390829,0.08638 0.784667,0.158087 1.177706,0.233578 0.489365,0.08717 0.977114,0.182638 1.459343,0.303857 0.632489,0.163504 1.262197,0.342655 1.872237,0.578259 0.477811,0.187484 0.954338,0.386479 1.383378,0.672311 0.178705,0.12446 0.143677,0.09595 0.311092,0.228926 0.0011,9.13e-4 0.01211,0.01124 0.01499,0.01395 -0.578943,0.215103 -1.186617,0.353197 -1.779736,0.519865 -1.301205,0.323279 -2.605492,0.634433 -3.919141,0.903821 -1.813591,0.381448 -3.631626,0.741588 -5.442045,1.137915 -1.320191,0.308353 -2.656883,0.599791 -3.91604,1.112077 -0.702686,0.301381 -1.405199,0.605154 -2.087728,0.950329 -2.939082,1.913254 -6.590058,1.680225 -9.989417,2.084076 -2.792709,0.344023 -8.171657,0.8688 -8.376023,1.049006 v 2.563668 c 0.195677,-0.110492 5.402106,-1.375429 8.154578,-1.782006 2.548718,-0.454274 6.969203,-0.17316 9.379905,-1.222918 0.542589,-0.372594 1.125671,-0.680386 1.71049,-0.980302 0.645639,-0.32463 1.307621,-0.615047 1.969389,-0.904855 1.151165,-0.492874 2.367607,-0.805003 3.579626,-1.106392 1.783927,-0.419203 3.584494,-0.764779 5.381584,-1.121895 1.335595,-0.258813 2.664506,-0.547983 3.990971,-0.849561 0.811088,-0.19027 1.623205,-0.38761 2.402437,-0.685229 0.556636,-0.247758 0.982757,-0.646151 1.095541,-1.270207 0.05599,-0.309828 -0.0086,-0.487378 -0.07131,-0.776697 -0.222769,-0.657328 -0.744739,-1.072799 -1.29036,-1.457792 -0.557951,-0.379335 -1.182226,-0.636044 -1.809709,-0.874365 -0.677071,-0.254023 -1.370318,-0.460483 -2.067574,-0.650607 -0.528913,-0.13725 -1.063488,-0.251523 -1.599902,-0.355017 -0.367289,-0.0769 -0.736642,-0.142672 -1.102259,-0.227376 -0.316537,-0.07575 -0.631231,-0.158921 -0.948779,-0.230477 -0.199141,-0.05186 -0.403058,-0.05663 -0.607198,-0.05839 z m 7.774719,4.017842 c 0.01814,0.0022 0.0019,0.02928 -0.100769,0.08733 -0.0081,0.0036 -0.01665,0.0063 -0.02481,0.0098 0.0079,-0.01151 0.01229,-0.02539 0.02119,-0.03617 0.03378,-0.04096 0.08625,-0.06323 0.104386,-0.06098 z" /><path
       style="opacity:1;fill:#ffffff;stroke-width:0.264583"
       id="path18"
       d="m 78.585781,30.145008 c 0.477661,-0.407702 0.944386,-0.828781 1.413751,-1.246203 0.53076,-0.492752 1.08572,-0.95766 1.646767,-1.415164 0.454935,-0.366104 0.913487,-0.727837 1.363281,-1.100265 0.343884,-0.286201 0.668756,-0.593138 0.989156,-0.904945 0.180787,-0.181197 0.09409,-0.09535 0.259799,-0.257808 0.984443,-0.978131 -0.398841,-2.370344 -1.383284,-1.392214 v 0 c -0.169389,0.17033 -0.08703,0.08663 -0.247176,0.250986 -0.283165,0.27924 -0.568965,0.555999 -0.872233,0.813639 -0.437288,0.374477 -0.884378,0.737461 -1.330818,1.100922 -0.577524,0.475992 -1.144534,0.963659 -1.697291,1.468439 -0.403326,0.355478 -0.803563,0.719947 -1.245346,1.02752 -1.170326,0.780219 -0.06693,2.43531 1.103394,1.655093 z" /><path
       style="opacity:1;fill:#ffffff;stroke-width:0.264583"
       id="path19"
       d="m 83.896715,23.410667 c -0.04101,-0.04429 -0.0778,-0.09288 -0.123021,-0.132866 -0.255098,-0.225556 -0.557083,-0.396572 -0.851339,-0.563591 -0.388033,-0.220247 -0.501941,-0.274919 -0.908259,-0.487055 -1.548995,-0.785631 -3.222604,-1.266614 -4.887193,-1.736489 -2.394347,-0.662158 -4.805309,-1.26265 -7.212941,-1.87427 -2.003666,-0.507525 -4.008366,-1.010834 -6.012026,-1.518371 -1.305783,-0.335814 -2.613205,-0.665194 -3.9243,-0.979655 -0.405427,-0.09238 -0.807106,-0.199752 -1.208384,-0.308398 -1.31612,-0.334622 -1.789345,1.526649 -0.473229,1.861271 v 0 c 0.419026,0.100062 0.838306,0.199237 1.260417,0.285661 1.308121,0.285467 2.612941,0.585686 3.914611,0.899305 2.008188,0.475606 4.014811,0.957896 6.019678,1.447304 2.388876,0.591694 4.77973,1.179188 7.139252,1.881227 1.531477,0.466944 3.072257,0.944497 4.488694,1.705473 0.357692,0.199119 0.71724,0.393225 1.051118,0.631346 0.05689,0.04057 0.20928,0.182571 0.166518,0.127314 -0.01111,-0.01435 -0.02373,-0.02747 -0.03559,-0.04121 0.846405,1.12854 2.442401,-0.06846 1.595996,-1.196997 z" /><path
       style="opacity:1;fill:#ffffff;stroke-width:0.264583"
       id="path20"
       d="m 57.474815,15.857347 c -0.227571,0.26216 -0.418626,0.554171 -0.610055,0.843078 -0.270788,0.400272 -0.532307,0.806304 -0.789324,1.215494 -0.287393,0.457312 -0.570288,0.917451 -0.860128,1.373215 -0.264647,0.424715 -0.556387,0.831345 -0.853528,1.23364 -0.259643,0.327372 -0.500734,0.668588 -0.745357,1.007128 -0.187828,0.270032 -0.370515,0.543563 -0.546764,0.821279 -0.733343,1.179471 0.93468,2.216574 1.668023,1.037103 v 0 c 0.147942,-0.244579 0.307631,-0.4818 0.470408,-0.71672 0.239014,-0.335603 0.476512,-0.672221 0.727101,-0.9994 0.318088,-0.440219 0.631854,-0.883796 0.920343,-1.344243 0.288356,-0.457128 0.575072,-0.915285 0.863486,-1.372378 0.249473,-0.391652 0.505738,-0.778697 0.765329,-1.163739 0.120562,-0.175112 0.265035,-0.382788 0.400677,-0.524247 0.997169,-0.997169 -0.413041,-2.407379 -1.410211,-1.41021 z" /><path
       style="opacity:1;fill:#ffffff;stroke-width:0.264583"
       id="path21"
       d="m 53.51962,22.14343 c -0.4034,-0.223168 -0.780757,-0.488072 -1.159063,-0.750737 -0.68539,-0.496951 -1.359654,-1.009107 -2.036567,-1.517517 -0.574836,-0.417422 -1.109707,-0.883853 -1.620327,-1.376742 -0.39012,-0.388735 -0.764193,-0.79361 -1.107289,-1.224547 -0.03643,-0.04831 -0.07286,-0.09661 -0.109291,-0.144923 -0.849657,-1.052046 -2.337475,0.149551 -1.487819,1.201598 v 0 c 0.04916,0.05767 0.09831,0.11533 0.147469,0.172995 0.411842,0.461146 0.842478,0.905356 1.282641,1.339478 0.571572,0.532984 1.166514,1.040254 1.802628,1.495459 0.6786,0.503171 1.364932,0.996246 2.030209,1.517104 0.261191,0.211432 0.521477,0.423608 0.780012,0.638258 0.08674,0.07202 0.177843,0.138941 0.261279,0.214758 0.0016,0.0015 -0.0032,0.003 -0.0048,0.0045 1.109943,0.863288 2.330817,-0.706408 1.220874,-1.569697 z" /><path
       style="opacity:1;fill:#ffffff;stroke-width:0.264583"
       id="path22"
       d="m 45.520948,16.553959 c -0.526243,0.289791 -1.099415,0.48597 -1.659019,0.700817 -1.327894,0.470825 -2.691392,0.83147 -4.046477,1.213942 -1.374471,0.396658 -2.762573,0.742936 -4.148214,1.097735 -1.126318,0.288764 -2.257478,0.558027 -3.384881,0.842431 -0.992907,0.280238 -1.987505,0.554465 -2.982039,0.828859 -0.77098,0.208376 -1.539629,0.425316 -2.307241,0.645743 -0.633281,0.17235 -1.269965,0.331991 -1.906845,0.49044 -0.31833,0.08124 -0.163265,0.04173 -0.465188,0.118542 -1.297266,0.354007 -0.796625,2.188618 0.500641,1.834611 v 0 c 0.300067,-0.08738 0.148354,-0.0428 0.455122,-0.133771 0.637034,-0.18498 1.273551,-0.371837 1.913925,-0.54506 0.773515,-0.214215 1.541835,-0.446014 2.308627,-0.683106 0.973889,-0.29427 1.951686,-0.576283 2.936272,-0.832742 1.121023,-0.307008 2.242105,-0.613852 3.365722,-0.91127 1.390848,-0.373629 2.779564,-0.755125 4.17349,-1.117236 1.376997,-0.385084 2.744181,-0.804151 4.121885,-1.186824 0.195382,-0.05163 0.391226,-0.101543 0.586148,-0.154896 0.41249,-0.112906 0.820229,-0.249838 1.237318,-0.343564 1.318506,-0.494441 0.619263,-2.359092 -0.699246,-1.864651 z" /><path
       style="opacity:1;fill:#ffffff;stroke-width:0.264583"
       id="path23"
       d="m 23.59372,23.939721 c 0.148471,0.413558 0.270211,0.835871 0.397123,1.256342 0.215972,0.753708 0.417239,1.511521 0.61687,2.269684 0.177616,0.680236 0.329462,1.367015 0.471652,2.055437 0.10729,0.517041 0.205889,1.035823 0.308544,1.553787 0.07,0.36476 0.129529,0.73139 0.215613,1.092835 0.366614,1.327195 2.243553,0.808723 1.876939,-0.518472 v 0 c -0.10632,-0.313061 -0.159142,-0.640202 -0.229606,-0.962499 -0.113977,-0.521708 -0.237138,-1.041344 -0.354232,-1.562359 -0.16366,-0.712764 -0.332981,-1.424281 -0.511919,-2.133375 -0.204375,-0.754555 -0.426475,-1.504433 -0.610841,-2.264275 -0.08711,-0.388371 -0.195684,-0.780467 -0.223986,-1.178336 -0.276643,-1.383212 -2.2328,-0.991981 -1.956157,0.391231 z" /><path
       style="opacity:1;fill:#ffffff;stroke-width:0.264583"
       id="path24"
       d="m 26.556978,31.89048 c -0.614038,0.38735 -1.278636,0.675497 -1.944195,0.961057 -0.77046,0.329059 -1.554718,0.623178 -2.335429,0.926335 -0.322402,0.133546 -1.109892,0.462918 -1.036966,0.917964 0.07082,0.441881 0.423719,0.78839 0.635578,1.182584 0.107197,0.02786 0.213286,0.06039 0.321589,0.08357 0.08269,0.0177 0.46563,0.06551 0.526889,0.07385 0.337506,0.04595 0.674117,0.09761 1.010725,0.149624 0.835529,0.121354 1.665154,0.274318 2.487242,0.466352 0.875827,0.21898 1.724584,0.529564 2.572674,0.835676 0.967015,0.357659 1.917198,0.757748 2.866075,1.160391 1.018329,0.446098 2.046492,0.868976 3.070842,1.30089 1.102484,0.466254 2.205111,0.931881 3.31198,1.387671 0.823045,0.342413 1.647534,0.681323 2.471767,1.020855 0.503417,0.194807 1.006668,0.434189 1.548167,0.504849 0.130156,0.01699 0.261855,0.01863 0.392781,0.02796 0.754351,-0.0081 1.451661,-0.309607 2.125136,-0.619731 0.652958,-0.320132 1.285055,-0.681141 1.921018,-1.033449 0.510217,-0.293719 1.03191,-0.565653 1.556909,-0.831633 0.06487,-0.03099 0.129731,-0.06198 0.194596,-0.09298 1.237012,-0.609145 0.375549,-2.358543 -0.861462,-1.749398 v 0 c -0.07469,0.03773 -0.149389,0.07546 -0.224084,0.113194 -0.540734,0.283279 -1.076976,0.574558 -1.604981,0.881091 -0.590547,0.33324 -1.18333,0.664007 -1.793793,0.959684 -0.389895,0.181784 -0.794226,0.368922 -1.223483,0.429321 -0.459865,0.01937 -0.890292,-0.232895 -1.31439,-0.372044 -0.828301,-0.324329 -1.656437,-0.649108 -2.482643,-0.978747 -1.102995,-0.439655 -2.195708,-0.903901 -3.285255,-1.375836 -1.021818,-0.434557 -2.047636,-0.859668 -3.065661,-1.303136 -0.979548,-0.41874 -1.959107,-0.838015 -2.956742,-1.212456 -0.917377,-0.334208 -1.837756,-0.66675 -2.785443,-0.906058 -0.865304,-0.202972 -1.738829,-0.362778 -2.61532,-0.509375 -0.338587,-0.05685 -0.67781,-0.110829 -1.01586,-0.17081 -0.137133,-0.02434 -0.270966,-0.06958 -0.409674,-0.08212 -0.0214,-0.0019 0.03916,0.0177 0.05874,0.02653 0.166173,0.374113 0.45885,0.714907 0.498519,1.122339 0.01961,0.201456 -0.216888,0.342476 -0.340279,0.502928 -0.01862,0.02421 -0.05092,0.03589 -0.08036,0.04404 -0.02113,0.0058 0.03614,-0.02484 0.05447,-0.03688 0.106024,-0.06966 0.07296,-0.04713 0.215097,-0.122407 0.769763,-0.341886 1.548023,-0.664593 2.325434,-0.988562 0.668046,-0.279937 1.340951,-0.549717 1.994628,-0.861872 1.294913,-0.554964 0.510077,-2.386246 -0.784836,-1.831285 z" /><path
       style="opacity:1;fill:#ffffff;stroke-width:0.264583"
       id="path25"
       d="m 27.633861,33.641895 c -0.01458,-0.0016 -0.02914,-0.0031 -0.04371,-0.0046 -0.0013,-0.0016 -0.0058,-0.0044 -0.0038,-0.0044 0.212471,-0.0021 0.45883,0.0733 0.65867,0.118956 1.090538,0.276622 2.142109,0.680686 3.207226,1.038482 1.026634,0.351925 2.067235,0.660186 3.106116,0.973299 1.135258,0.349006 2.268373,0.704786 3.401356,1.061077 0.931987,0.29828 1.867617,0.584988 2.801139,0.878395 0.773271,0.240583 1.541536,0.496396 2.310066,0.751541 0.600059,0.20292 1.203478,0.395685 1.807332,0.586957 0.440814,0.136782 0.881568,0.27373 1.323665,0.406316 0.315032,0.09472 0.632854,0.179575 0.948807,0.271097 0.216505,0.06442 0.436549,0.115419 0.654843,0.173167 0.132821,0.04005 0.264991,0.08217 0.397714,0.122539 0.03783,0.01707 0.08634,0.01709 0.121989,0.0408 1.316418,0.470352 1.981599,-1.391346 0.665181,-1.861698 v 0 c -0.07545,-0.02445 -0.150815,-0.04939 -0.227838,-0.06854 -0.160899,-0.04594 -0.320837,-0.09528 -0.483465,-0.135001 -0.206738,-0.04848 -0.414632,-0.09193 -0.620221,-0.145251 -0.310602,-0.07867 -0.622673,-0.151802 -0.930457,-0.241208 -0.435888,-0.118298 -0.872252,-0.23496 -1.306116,-0.360558 C 44.822252,37.0705 44.228493,36.87754 43.630225,36.698708 42.849622,36.460734 42.073856,36.207252 41.291181,35.976052 40.35263,35.694583 39.413026,35.416931 38.471684,35.144884 37.335359,34.809631 36.204331,34.457314 35.081064,34.080397 34.059045,33.753742 33.02799,33.456792 32.007963,33.123801 30.930326,32.767145 29.850638,32.41354 28.796586,31.990858 28.42092,31.8449 28.040816,31.677131 27.633871,31.646894 c -1.410675,0 -1.410675,1.994995 0,1.994995 z" /><path
       style="opacity:1;fill:#ffffff;stroke-width:0.264583"
       id="path26"
       d="m 48.764078,40.217473 c -0.02572,-0.0073 -0.05219,-0.01233 -0.07714,-0.02193 -0.284721,-0.109516 -0.1031,-0.05708 -0.07225,-0.03751 0.0684,0.04337 0.13897,0.09971 0.202594,0.148127 0.22765,0.19045 0.442743,0.39578 0.650359,0.607766 0.167928,0.170051 0.313584,0.357823 0.439923,0.560224 0.08199,0.139986 0.152543,0.286036 0.221377,0.432779 0.606501,1.213683 2.322909,0.355957 1.716405,-0.857727 v 0 c -0.105704,-0.201519 -0.212844,-0.402439 -0.330939,-0.597069 -0.202144,-0.314277 -0.418806,-0.618672 -0.69043,-0.877803 -0.251994,-0.253682 -0.521472,-0.488907 -0.788924,-0.726069 -0.263305,-0.235725 -0.526507,-0.497901 -0.879747,-0.586944 -1.383213,-0.27664 -1.774444,1.679517 -0.391232,1.956157 z" /></g></svg>
