<svg
   viewBox="0 0 13.392463 13.392464"
   version="1.1"
   id="svg1"
   xml:space="preserve"
   xmlns="http://www.w3.org/2000/svg"
   xmlns:svg="http://www.w3.org/2000/svg">
    <defs id="defs1" /><g
     transform="translate(-0.39379527,-0.29540642)">
    <path
       d="M 7.0900275,0.29540646 A 6.6962867,6.6962867 0 0 0 0.39379538,6.9916386 6.6962867,6.6962867 0 0 0 7.0900275,13.687871 6.6962867,6.6962867 0 0 0 13.78626,6.9916386 6.6962867,6.6962867 0 0 0 7.0900275,0.29540646 Z M 7.7551032,1.8529341 c 0.7120785,-6.22e-5 1.3880289,0.055294 1.3880289,0.055294 v -5.168e-4 c 0.6137129,-0.00684 1.3849289,0.8903058 1.3849289,1.594218 0,1.9260959 0.02391,5.20535 0.03617,6.7701287 0.0043,0.544559 -0.7501837,0.876433 -1.1534179,0.876433 -0.3589737,0 -0.8215046,0.845726 -1.2986288,0.842326 C 7.6240232,11.910247 7.5566102,10.703229 7.5773362,10.278776 6.2031913,9.0998475 4.2399185,10.728134 3.1042243,10.078272 2.7029949,9.8486819 2.5968287,9.6566257 2.4841071,9.3615197 2.1816186,8.5696035 2.1945804,7.6299316 2.4417324,6.8190393 2.87934,5.3832726 4.3574569,3.0203127 5.413644,2.4105228 5.8227162,2.1743449 6.1635962,2.0193925 6.5727464,1.9366499 6.8877083,1.8729554 7.3278561,1.8529714 7.7551032,1.8529341 Z M 7.4579637,4.4357222 C 7.4032684,4.4350499 7.3410574,4.4575439 7.3117194,4.4868819 6.7196627,5.3419587 6.0715659,6.1808506 5.5330166,7.0753544 5.4342351,7.2464519 5.794661,7.6731479 7.3194708,7.3900638 7.4618173,7.3636372 7.5110755,7.196645 7.5520148,7.071737 c 0.2644688,-0.8070196 0.00568,-2.5476481 0.00568,-2.5476481 0.00194,-0.063641 -0.04504,-0.087694 -0.099736,-0.088367 z" /></g></svg>
