<svg viewBox="0 0 100 100" xmlns="http://www.w3.org/2000/svg">
<path d="M83.25 21.5391C75.2891 15.1329 62.6953 14.047 62.1563 14.0079C61.3203 13.9376 60.5234 14.4063 60.1797 15.1798C60.1485 15.2266 59.875 15.8594 59.5703 16.8438C64.836 17.7344 71.3047 19.5235 77.1563 23.1563C78.0938 23.7344 78.3828 24.9688 77.8047 25.9063C77.4219 26.5235 76.7735 26.8594 76.1016 26.8594C75.7422 26.8594 75.375 26.7579 75.0469 26.5548C64.9844 20.3126 52.4219 20.0001 50 20.0001C47.5782 20.0001 35.0079 20.3126 24.9532 26.5548C24.0157 27.1407 22.7813 26.8516 22.2032 25.9141C21.6172 24.9688 21.9063 23.7423 22.8438 23.1563C28.6953 19.5313 35.1641 17.7344 40.4297 16.8516C40.125 15.8595 39.8516 15.2345 39.8282 15.1798C39.4766 14.4063 38.6875 13.9219 37.8438 14.0079C37.3047 14.0469 24.711 15.1329 16.6407 21.6251C12.4297 25.5235 4.00003 48.3047 4.00003 68.0001C4.00003 68.3516 4.09379 68.6876 4.26565 68.9922C10.0782 79.211 25.9453 81.8829 29.5625 82.0001C29.5781 82.0001 29.6016 82.0001 29.625 82.0001C30.2656 82.0001 30.8672 81.6954 31.2422 81.1797L34.8985 76.1485C25.0313 73.6016 19.9922 69.2735 19.7032 69.0157C18.875 68.2891 18.7969 67.0235 19.5313 66.1954C20.2578 65.3672 21.5234 65.2891 22.3516 66.0157C22.4688 66.1251 31.75 74.0001 50 74.0001C68.2813 74.0001 77.5625 66.0938 77.6563 66.0157C78.4844 65.2969 79.7422 65.3672 80.4766 66.2032C81.2032 67.0313 81.125 68.2891 80.2969 69.0157C80.0079 69.2735 74.9688 73.6016 65.1016 76.1485L68.7579 81.1798C69.1329 81.6954 69.7344 82.0001 70.375 82.0001C70.3985 82.0001 70.4219 82.0001 70.4375 82.0001C74.0547 81.8829 89.9219 79.211 95.7344 68.9923C95.9063 68.6876 96 68.3516 96 68.0001C96 48.3048 87.5703 25.5235 83.25 21.5391ZM37 60.0001C33.1328 60.0001 30 56.422 30 52.0001C30 47.5782 33.1328 44.0001 37 44.0001C40.8672 44.0001 44 47.5782 44 52.0001C44 56.422 40.8672 60.0001 37 60.0001ZM63 60.0001C59.1328 60.0001 56 56.422 56 52.0001C56 47.5782 59.1328 44.0001 63 44.0001C66.8672 44.0001 70 47.5782 70 52.0001C70 56.422 66.8672 60.0001 63 60.0001Z"/>
</svg>
