<svg viewBox="0 0 100 100" xmlns="http://www.w3.org/2000/svg">
<path d="M50 9.375C27.5641 9.375 9.375 27.5641 9.375 50C9.375 69.1828 22.675 85.25 40.5547 89.5094C39.6297 89.2891 38.7125 89.0422 37.8125 88.7609V79.4531C37.8125 79.4531 36.2891 79.9609 34.2578 79.9609C28.575 79.9609 26.2141 74.8906 25.625 72.3438C25.2672 70.7922 24.3328 69.3219 23.3297 68.4234C22.1312 67.3547 21.5703 67.3516 21.5625 66.9859C21.5469 66.2187 22.5906 66.25 23.0859 66.25C25.625 66.25 27.55 68.9516 28.4438 70.3484C30.6578 73.7969 33.0344 74.375 34.2578 74.375C35.7812 74.375 37.0969 74.1469 38.0031 73.7094C38.4219 70.7594 39.7344 68.1313 41.875 66.25C32.3484 64.3453 25.625 58.8812 25.625 50C25.625 45.425 27.4609 41.2203 30.5203 37.825C30.2078 36.9391 29.6875 35.1469 29.6875 32.2266C29.6875 30.2969 29.8219 27.9281 30.7031 25.625C30.7031 25.625 36.4969 25.6656 41.9609 30.8406C44.4828 30.1063 47.1813 29.6875 50 29.6875C52.8187 29.6875 55.5172 30.1063 58.0391 30.8406C63.5031 25.6656 69.2969 25.625 69.2969 25.625C70.1828 27.9281 70.3125 30.2969 70.3125 32.2266C70.3125 35.375 69.8938 37.2109 69.6375 38.0031C72.6031 41.3672 74.375 45.5062 74.375 50C74.375 58.8812 67.6516 64.3453 58.125 66.25C60.6688 68.4844 62.1875 71.7391 62.1875 75.3906V88.7609C61.2875 89.0437 60.3719 89.2891 59.4453 89.5094C77.325 85.25 90.625 69.1828 90.625 50C90.625 27.5641 72.4359 9.375 50 9.375ZM52.8328 90.5156C51.8969 90.5813 50.9531 90.625 50 90.625C50.9531 90.625 51.8953 90.5797 52.8328 90.5156ZM50 90.625C49.0469 90.625 48.1031 90.5813 47.1672 90.5156C48.1047 90.5797 49.0469 90.625 50 90.625ZM46.5438 90.4688C44.6422 90.3078 42.7766 90.0172 40.9594 89.6031C42.7781 90.0156 44.6422 90.3078 46.5438 90.4688Z" />
</svg>
