<svg viewBox="0 0 100 100" xmlns="http://www.w3.org/2000/svg">
<path d="M50 4C75.406 4 96 24.594 96 50C96 75.406 75.406 96 50 96C24.594 96 4 75.406 4 50C4 24.594 24.594 4 50 4ZM65.868 68.75C66.714 66.154 70.678 40.282 71.168 35.184C71.316 33.64 70.828 32.614 69.872 32.156C68.716 31.6 67.004 31.878 65.018 32.594C62.294 33.576 27.47 48.362 25.458 49.218C23.55 50.028 21.746 50.912 21.746 52.192C21.746 53.092 22.28 53.598 23.752 54.124C25.284 54.67 29.142 55.84 31.42 56.468C33.614 57.074 36.112 56.548 37.512 55.678C38.996 54.756 56.122 43.296 57.352 42.292C58.58 41.288 59.56 42.574 58.556 43.58C57.552 44.584 45.796 55.994 44.246 57.574C42.364 59.492 43.7 61.48 44.962 62.276C46.404 63.184 56.774 70.14 58.336 71.256C59.898 72.372 61.482 72.878 62.932 72.878C64.382 72.878 65.146 70.968 65.868 68.75Z" />
</svg>
